
<svg width="63px" height="48px" viewBox="0 0 63 48" version="1.1" xmlns="http://www.w3.org/2000/svg" xmlns:xlink="http://www.w3.org/1999/xlink">
    <g id="Logo" stroke="none" stroke-width="1" fill="none" fill-rule="evenodd">
        <g id="Login-providrs" transform="translate(-110.000000, -42.000000)" fill="#5865F2" fill-rule="nonzero">
            <g id="Discord-Logo-Color" transform="translate(110.000000, 42.000000)">
                <path d="M53.3321606,3.9789381 C49.3167537,2.13726067 45.0108369,0.780393922 40.5087327,0.00325997607 C40.426744,-0.0117384661 40.344844,0.025743448 40.3026074,0.10070905 C39.7488285,1.08524103 39.1354215,2.3696434 38.705868,3.3791778 C33.8635639,2.65453397 29.0461048,2.65453397 24.3030923,3.3791778 C23.87345,2.34720338 23.2377712,1.08524103 22.6815078,0.10070905 C22.6392712,0.0282446666 22.5573712,-0.00923724744 22.4753825,0.00325997607 C17.9757629,0.777910442 13.6698461,2.13477719 9.6519546,3.9789381 C9.6171715,3.99392767 9.58735742,4.01893986 9.5675701,4.05140248 C1.40015269,16.2483024 -0.837244345,28.1454108 0.26034784,39.8950183 C0.265314192,39.9524931 0.297595924,40.0074844 0.342294866,40.0424305 C5.73092343,43.9980812 10.9507306,46.3995171 16.0736066,47.9912501 C16.1555953,48.0162623 16.2424643,47.9862831 16.2946389,47.9187857 C17.5064572,46.264611 18.5866854,44.5204101 19.5128741,42.6861831 C19.5675332,42.5787726 19.5153586,42.4513169 19.4036445,42.4088317 C17.690222,41.7591357 16.0586995,40.9669945 14.4892897,40.0674427 C14.3651531,39.9949783 14.3552151,39.8174983 14.4694136,39.7325278 C14.7996756,39.4851555 15.1300263,39.2277606 15.4453812,38.9678822 C15.5024362,38.92043 15.5819404,38.9104074 15.6490221,38.9403865 C25.9593711,43.6457819 37.1215511,43.6457819 47.3102481,38.9403865 C47.3773298,38.9079239 47.456834,38.9179465 47.5163734,38.9653987 C47.8318171,39.2252771 48.162079,39.4851555 48.4948255,39.7325278 C48.6090241,39.8174983 48.6015706,39.9949783 48.477434,40.0674427 C46.9080241,40.9844675 45.2765016,41.7591357 43.5605946,42.4063482 C43.4488806,42.4488335 43.3991904,42.5787726 43.4538496,42.6861831 C44.3999143,44.5178379 45.4801425,46.2620388 46.6696002,47.9163022 C46.7192903,47.9862831 46.8086439,48.0162623 46.8906326,47.9912501 C52.0383536,46.3995171 57.2581253,43.9980812 62.6467547,40.0424305 C62.6939604,40.0074844 62.7237745,39.9549766 62.7287435,39.8975018 C64.0423378,26.3136673 60.5285351,14.5141241 53.4140606,4.05388596 C53.396669,4.01893986 53.3669437,3.99392767 53.3321606,3.9789381 Z M21.0525586,32.7407348 C17.9484333,32.7407348 15.3907221,29.8920951 15.3907221,26.3936708 C15.3907221,22.8952465 17.8988319,20.0466068 21.0525586,20.0466068 C24.2310416,20.0466068 26.7639964,22.9202587 26.7143063,26.3936708 C26.7143063,29.8920951 24.2061965,32.7407348 21.0525586,32.7407348 Z M41.9862158,32.7407348 C38.8821793,32.7407348 36.324468,29.8920951 36.324468,26.3936708 C36.324468,22.8952465 38.8324891,20.0466068 41.9862158,20.0466068 C45.1647876,20.0466068 47.6976537,22.9202587 47.6480523,26.3936708 C47.6480523,29.8920951 45.1647876,32.7407348 41.9862158,32.7407348 Z" id="Shape"></path>
            </g>
        </g>
    </g>
</svg>