<svg width="65" height="65" viewBox="0 0 65 65" fill="none" xmlns="http://www.w3.org/2000/svg">
<path fill-rule="evenodd" clip-rule="evenodd" d="M56.0201 18.8995C55.9119 18.9584 55.8044 19.3668 55.781 19.8071C55.744 20.5049 55.8266 20.6575 56.4244 20.9972C56.8015 21.2116 57.0749 21.4483 57.0321 21.5236C56.9891 21.5988 57.0423 21.7104 57.15 21.7715C57.2578 21.8328 57.4057 22.099 57.4786 22.3634C57.6032 22.8133 57.6269 22.826 57.8504 22.5646C58.1618 22.2006 58.6816 22.7353 58.8989 23.6435C58.9857 24.0062 59.1741 24.3696 59.3174 24.451C59.4607 24.5325 59.6103 24.7803 59.65 25.002C59.7427 25.5198 60.1804 25.7708 60.3797 25.4202C60.4674 25.2658 60.6807 25.7127 60.8763 26.4613C61.2277 27.8064 61.2129 28.2738 60.8337 27.8129C60.6848 27.6318 60.5523 27.6697 60.4008 27.9363C60.2807 28.1477 60.0837 28.2645 59.963 28.1959C59.7925 28.099 59.7648 28.1477 59.8387 28.4148C59.8909 28.6037 59.8637 28.8814 59.7782 29.0319C59.6572 29.2447 59.6016 29.229 59.5277 28.9619C59.394 28.4784 58.8051 28.1908 58.6192 28.518C58.5337 28.6684 58.384 28.7462 58.2866 28.6909C58.1893 28.6356 58.2247 28.496 58.3655 28.3805C58.5061 28.265 58.6517 27.865 58.6889 27.4914C58.7748 26.6279 58.1654 25.9867 57.5002 26.2406C57.0469 26.4134 57.0256 26.4016 56.8915 25.9043C56.815 25.6205 56.8464 25.3372 56.9612 25.2748C57.3262 25.0755 56.7739 24.918 56.0769 25.0223C55.7072 25.0775 55.3337 25.0824 55.2467 25.033C55.1596 24.9835 55.1818 24.779 55.2958 24.5784C55.4724 24.2676 55.3812 24.1443 54.6805 23.7461C54.2281 23.489 53.8225 23.341 53.7793 23.417C53.7359 23.4933 53.4661 23.5651 53.1795 23.5766C52.7995 23.5921 52.7305 23.5586 52.9241 23.4529C53.1278 23.3417 52.9828 23.2351 52.3025 22.9955C51.8145 22.8236 50.9926 22.4211 50.4763 22.1012C49.9131 21.7521 49.4935 21.5964 49.4277 21.7122C49.3675 21.8182 49.1585 21.8143 48.9633 21.7034C48.7681 21.5924 48.5094 21.5557 48.3884 21.6218C48.2672 21.6878 48.1184 21.6513 48.0577 21.5403C47.9969 21.4294 47.895 21.4304 47.8312 21.5426C47.7629 21.6628 47.656 21.6326 47.5707 21.4691C47.3267 21.0013 46.5443 20.6683 46.0201 20.8094C45.7252 20.8888 45.4235 20.8233 45.2798 20.6485C45.1024 20.4326 45.0236 20.444 44.9864 20.6907C44.9478 20.9472 44.8442 20.9503 44.5543 20.7035C44.3139 20.4989 43.9399 20.434 43.5423 20.528C43.1954 20.6098 42.7545 20.5877 42.5628 20.4787C42.371 20.3698 41.6963 20.1569 41.0635 20.0057C40.2642 19.8147 39.8587 19.8239 39.7361 20.0355C39.6038 20.2632 39.5551 20.2594 39.5434 20.0201C39.5244 19.6407 38.662 19.4449 38.0406 19.6788C37.8236 19.7606 37.5577 19.72 37.4496 19.5885C37.3416 19.4572 36.8013 19.4735 36.249 19.6248C35.6107 19.7999 35.1427 19.8005 34.9643 19.6267C34.8098 19.4764 34.4066 19.4191 34.0681 19.4989C33.7295 19.5789 33.342 19.5816 33.2071 19.5049C32.8982 19.3294 29.9689 19.4824 29.063 19.7214C28.6895 19.8199 28.313 19.8603 28.2262 19.8109C28.1394 19.7616 27.8382 19.7842 27.5567 19.8614C27.2754 19.9384 26.6076 20.0603 26.0726 20.1322C25.5379 20.2042 25.0137 20.415 24.9083 20.6005C24.7861 20.8155 24.6437 20.8491 24.5154 20.6932C24.2524 20.3737 20.8352 21.2696 20.055 21.8628C19.7194 22.118 19.3308 22.2354 19.1542 22.135C18.7625 21.9124 17.8878 22.3153 17.5776 22.8612C17.4478 23.0895 17.2582 23.2291 17.1562 23.1711C16.8138 22.9765 15.2204 23.6318 14.7718 24.1519C14.5274 24.435 14.1791 24.6441 13.9977 24.6165C13.7584 24.58 13.6157 24.7351 13.4776 25.1819C13.3206 25.6891 13.2474 25.7491 13.0611 25.5228C12.9149 25.3451 12.7784 25.3484 12.6739 25.5322C12.5851 25.6885 12.3597 25.8162 12.1727 25.8161C11.986 25.8162 11.7114 25.9641 11.5626 26.145C11.4139 26.3259 11.1277 26.5239 10.9269 26.585C10.7257 26.6461 10.4947 26.8135 10.4133 26.9566C10.3319 27.1 10.178 27.1677 10.0716 27.1072C9.96213 27.045 9.8841 27.1317 9.8918 27.3067C9.91723 27.8806 9.16422 28.5665 7.56717 29.4238C7.166 29.6391 6.70541 30.127 6.37888 30.6824C6.06225 31.2213 5.54038 31.7812 5.09342 32.0622C4.26171 32.5848 3.67876 33.4616 3.53276 34.4092C3.46603 34.8432 3.36855 35.0156 3.20815 34.9837C3.04793 34.9521 2.97563 35.0801 2.96741 35.4103C2.95925 35.7464 2.85818 35.9191 2.61634 36.0102C2.36376 36.1053 2.30652 36.246 2.39303 36.5589C2.47976 36.8731 2.42678 37.0025 2.18416 37.069C1.94126 37.1355 1.91378 37.1894 2.07592 37.2815C2.19547 37.3495 2.15917 37.7632 1.99549 38.201C1.81594 38.6812 1.79733 39.0535 1.94868 39.1395C2.12399 39.2391 2.05925 39.5288 1.73307 40.1028C1.35672 40.765 1.32906 40.9575 1.58986 41.0994C2.041 41.3452 2.91541 41.2177 2.6675 40.9424C2.55116 40.8131 2.64228 40.4868 2.90574 40.0883C3.14028 39.7335 3.24747 39.3951 3.14364 39.336C2.889 39.1913 3.76295 37.688 4.34726 37.2658C4.72049 36.9963 4.82645 36.7716 4.86568 36.1668C4.89928 35.6502 4.9995 35.4037 5.17847 35.3973C5.32339 35.392 5.4377 35.2777 5.43261 35.1428C5.4276 35.0083 5.81141 34.7074 6.2856 34.4743C7.01538 34.1157 7.15544 33.9641 7.19776 33.4875C7.23933 33.0182 7.28303 32.9673 7.45966 33.182C7.65212 33.4162 8.14831 33.1618 8.53745 32.6294C8.60597 32.5356 8.88832 32.2818 9.16502 32.0655C9.44173 31.8493 9.73113 31.5614 9.80824 31.4257C9.88525 31.2902 10.0749 31.196 10.2294 31.2165C10.4452 31.2453 10.4803 31.1892 10.3805 30.9749C10.2878 30.7763 10.5332 30.6219 11.2336 30.4384C11.9024 30.2633 12.2436 30.0554 12.3 29.7888C12.3493 29.5562 12.6172 29.3239 12.9592 29.2171C13.8626 28.9347 14.3239 28.2728 14.0638 27.6321C13.8748 27.1663 13.8892 27.1151 14.1662 27.268C14.3433 27.3658 14.5593 27.3211 14.6459 27.1688C14.7621 26.9643 14.906 26.9897 15.1953 27.2658C15.4331 27.4929 15.6414 27.5656 15.725 27.4508C15.8008 27.3469 15.9298 27.1912 16.0121 27.1053C16.0943 27.0193 16.2183 26.8726 16.2879 26.7795C16.3575 26.6863 16.5378 26.6802 16.6886 26.7659C16.8394 26.8516 17.0122 26.8347 17.0726 26.7286C17.1329 26.6225 17.0816 26.539 16.9585 26.5434C16.8354 26.548 16.8664 26.4165 17.0273 26.2517C17.1883 26.0867 17.3958 26.0386 17.4888 26.1448C17.7013 26.3882 18.4754 26.2929 18.7471 25.9898C18.8603 25.8638 19.167 25.7343 19.4286 25.702C19.7715 25.66 19.9458 25.4946 20.0523 25.1097C20.1737 24.6719 20.2245 24.6391 20.3336 24.9271C20.4392 25.2055 20.8261 25.1955 22.1922 24.8793C23.1412 24.6598 23.975 24.3772 24.0452 24.2511C24.1155 24.1253 24.2393 24.0598 24.3205 24.1059C24.5556 24.2395 27.0777 23.5918 27.2069 23.3646C27.2712 23.2513 27.604 23.0819 27.9466 22.988C28.3588 22.8751 28.4758 22.894 28.2927 23.0443C27.7987 23.4492 28.3586 23.7189 29.2521 23.5063C29.7315 23.3922 30.3589 23.3248 30.6462 23.3566C31.4203 23.4426 32.1239 23.3922 32.4354 23.2285C32.587 23.1489 32.8511 23.1629 33.022 23.2601C33.193 23.357 33.6884 23.3671 34.1231 23.2826C34.5577 23.1978 35.0649 23.2149 35.2504 23.3203C35.4358 23.4256 35.6575 23.3888 35.743 23.2383C35.8412 23.0654 36.073 23.0639 36.373 23.2344C36.6339 23.3827 37.1355 23.5056 37.4875 23.5073C37.8395 23.5093 38.61 23.571 39.2 23.6447C39.79 23.7185 40.3209 23.6938 40.3799 23.59C40.439 23.486 40.643 23.4895 40.8333 23.5977C41.0236 23.7058 41.2953 23.6993 41.4371 23.583C41.5789 23.4667 41.7828 23.4784 41.8902 23.6091C41.9976 23.7396 42.3594 23.889 42.6943 23.9411C43.1764 24.0161 43.3301 23.9384 43.434 23.5674C43.5063 23.3101 43.5541 23.2289 43.5407 23.387C43.5112 23.7305 44.1055 24.1095 44.4118 23.9424C44.5309 23.8774 44.8124 23.9201 45.0371 24.0374C45.2618 24.1548 45.3666 24.1508 45.2695 24.0288C45.0241 23.7198 45.2256 23.4397 45.5576 23.6284C45.7084 23.7141 45.877 23.7047 45.9322 23.6075C45.9873 23.5105 46.1291 23.5483 46.2471 23.6917C46.4994 23.9984 46.2697 24.5157 45.9595 24.3394C45.8424 24.2728 45.7699 24.3033 45.7985 24.4074C45.8273 24.5113 46.1005 24.5411 46.4058 24.4738C46.7198 24.4042 46.9088 24.4424 46.841 24.5617C46.6943 24.8197 47.3474 25.2213 47.6475 25.0574C47.7667 24.9924 48.0237 25.0299 48.2189 25.1409C48.4807 25.2897 48.6524 25.213 48.8732 24.8492L49.1727 24.3559L49.0774 24.9303C49.0007 25.3929 49.0825 25.5388 49.4984 25.6803C49.7821 25.7771 50.1208 25.7689 50.2512 25.662C50.3813 25.5552 50.5345 25.5533 50.5917 25.6574C50.6488 25.7615 50.9122 25.8526 51.1769 25.8595C51.5072 25.8681 51.6243 25.9323 51.5499 26.0632C51.4158 26.2992 53.0334 26.9461 53.3506 26.7833C53.4704 26.7218 53.6361 26.795 53.7189 26.9458C53.8157 27.1224 53.8655 27.1208 53.8587 26.9412C53.8445 26.5691 55.6139 27.7349 55.7366 28.1786C55.864 28.6395 56.5118 28.9635 56.5675 28.5941C56.5996 28.3814 56.765 28.3874 57.1341 28.6145C57.4208 28.7909 57.601 29.0313 57.5348 29.1486C57.4683 29.266 57.392 29.5083 57.365 29.687C57.3321 29.9057 57.0967 29.9717 56.6458 29.8887C55.9242 29.7558 55.7451 29.8811 55.893 30.4161C55.9655 30.6784 55.8401 30.7072 55.3428 30.5426C54.9885 30.4252 54.5698 30.3786 54.4124 30.4392C53.9072 30.633 52.7752 32.5559 53.0682 32.7225C53.3733 32.8958 54.3572 32.0995 54.3597 31.6772C54.3625 31.1578 54.5999 31.3094 54.6652 31.8723C54.7136 32.2885 54.7698 32.3168 55.5922 32.3388C56.1875 32.3547 56.594 32.2173 56.8622 31.9096C57.1027 31.6337 57.3272 31.5429 57.4374 31.677C57.6707 31.9606 58.2045 31.4204 58.0923 31.0145C57.9891 30.6412 58.747 30.5033 59.5252 30.7537C60.1526 30.9556 61.0842 30.3633 60.9876 29.8239C60.9403 29.5594 60.9805 29.498 61.141 29.5892C61.2721 29.6637 61.3932 29.5489 61.446 29.3002C61.494 29.0732 61.6489 28.8835 61.7902 28.8784C62.1934 28.8641 62.3565 28.3997 62.0137 28.242C61.6552 28.0771 61.5496 27.2788 61.8747 27.1897C61.9959 27.1565 62.1028 27.2935 62.1125 27.4942C62.1251 27.7567 62.1685 27.7936 62.2667 27.6255C62.555 27.1318 62.2038 25.8378 61.6272 25.2681C61.2862 24.9315 61.1022 24.5745 61.1899 24.42C61.3581 24.1242 61.1081 23.8977 60.7992 24.0662C60.6902 24.1256 60.6809 24.2745 60.7783 24.3972C60.8985 24.5485 60.8632 24.5736 60.6681 24.4757C60.5099 24.3962 60.2704 24.0996 60.1358 23.8166C59.979 23.4877 59.8481 23.3768 59.7725 23.5098C59.7075 23.6241 59.5721 23.6234 59.4712 23.5081C59.3706 23.3928 59.3801 23.1866 59.4929 23.0499C59.7405 22.7496 59.5927 22.3479 58.9856 21.6706C58.6138 21.2559 58.4618 21.196 58.1568 21.3455C57.8245 21.508 57.8055 21.4861 57.985 21.1482C58.3887 20.3877 57.7635 19.5894 56.9918 19.88C56.6441 20.011 56.5788 19.9582 56.4085 19.4098C56.3032 19.07 56.1283 18.8403 56.0201 18.8995ZM54.8717 19.0025C54.6644 19.0123 54.5803 19.1019 54.6535 19.2354C54.719 19.3549 54.8893 19.3566 55.0322 19.2395C55.3323 18.9933 55.324 18.9814 54.8717 19.0025ZM54.0378 25.3715C53.9159 25.4682 53.9328 25.3419 54.0753 25.0911C54.2178 24.8404 54.3175 24.7614 54.297 24.9155C54.2765 25.0699 54.1599 25.275 54.0378 25.3715ZM50.5927 24.6866C50.5045 24.7108 50.4598 24.5515 50.4933 24.3326C50.5419 24.0164 50.5747 24.0072 50.6537 24.2886C50.7084 24.4835 50.6808 24.6626 50.5927 24.6866ZM43.8353 22.7703C43.6919 22.8878 43.5422 22.9656 43.5027 22.9432C43.4632 22.9207 43.5008 22.7793 43.5864 22.6288C43.6719 22.4783 43.8215 22.4005 43.919 22.4559C44.0162 22.5112 43.9786 22.6526 43.8353 22.7703ZM44.7367 23.4485C44.5958 23.5608 44.577 23.4929 44.689 23.2755C44.7904 23.0788 44.8947 22.9957 44.9209 23.0907C44.9472 23.1858 44.8644 23.3469 44.7367 23.4485ZM7.02964 32.8131C6.95285 33.2036 6.61418 32.9199 6.67502 32.5158C6.70769 32.2996 6.79592 32.2393 6.90426 32.3597C7.00103 32.4673 7.05757 32.6712 7.02964 32.8131Z" fill="black"/>
</svg>
