
<svg viewBox="0 0 500 500" version="1.1" xmlns="http://www.w3.org/2000/svg" xmlns:xlink="http://www.w3.org/1999/xlink">
    <g id="Symbols" stroke="none" stroke-width="1" fill="none" fill-rule="evenodd">
        <g id="Group">
            <circle id="Oval-Main-BG" fill="#1F40FF" cx="250.5" cy="250.5" r="246.5"></circle>
            <g id="COLOR-CHANGE" transform="translate(70.000000, 290.000000)">
                <path d="M54.5037098,83 C37.816301,94.2487815 20.2904361,104.577017 1.92611531,113.984706 C-1.59692831,115.789494 0.178104738,118.163614 3.52013911,122.69263 C14.1837809,137.143651 50.8814731,167.011969 89.7122073,182.84593 C133.866187,200.850545 177.230811,199.993524 181.388619,199.993524 C186.736482,199.993524 231.845914,200.755784 287.647802,176.402677 C299.474653,171.241193 316.465397,160.967471 336.695297,143.925849 C340.329081,140.864757 345.763982,135.56595 353,128.029427 L300.614808,87.0576667 C247.599854,114.372174 206.870445,128.029427 178.42658,128.029427 C149.982715,128.029427 108.675091,113.019618 54.5037098,83 Z" id="Bottom-Shadow" stroke="#201F1F" stroke-width="11" fill="#EBEBEB"></path>
                <path d="M186.967597,141 C197.888595,141 206.860786,138.473055 216.806897,137.297162 C296.160903,127.915423 345,84.5443684 345,27.6271421 C345,-36.4240032 274.333383,40.0917713 176.280347,40.0917713 C78.2273102,40.0917713 26,-39.0260032 26,25.0251421 C26,89.0762875 88.9145606,141 186.967597,141 Z" id="Helmet" fill="#FFFFFF"></path>
                <path d="M6.73686484,117.742317 C17.3313339,131.144649 29.3660835,141.725294 42.8411134,149.484253 C53.329454,155.523468 123.685348,161.925598 157.955542,153.879837 C176.21682,149.592558 211.898306,137.309801 265,117.031566 C189.963859,125.919351 142.829362,128.259864 123.596508,124.053105 C74.4488012,113.303136 56.2317224,88 55.8620749,88 C55.4202765,88 51.5462914,90.865789 42.8411134,96.463686 C40.5624108,97.9290142 28.5276612,105.021891 6.73686484,117.742317 Z" id="Bottom-Suit" fill="#FFFFFF"></path>
            </g>
            <path d="M137.96,398.547237 C184.125674,427.856137 221.361791,440.462611 249.668352,436.366659 C261.674053,434.629437 292.844928,434.507156 317.173545,425.240045 C327.773196,421.202489 343.062014,412.242474 363.04,398.36" id="Line-3" stroke="#303030" stroke-width="3" stroke-linecap="round"></path>
            <path d="M138.64,407.387237 C184.805674,436.696137 222.041791,449.302611 250.348352,445.206659 C262.354053,443.469437 293.524928,443.347156 317.853545,434.080045 C328.453196,430.042489 343.742014,421.082474 363.72,407.2" id="Line-3-Copy" stroke="#303030" stroke-width="5" stroke-linecap="round"></path>
            <path d="M120.96,227.04 C113.706667,240.697087 110.08,251.01042 110.08,257.98 C110.08,264.94958 113.706667,275.262913 120.96,288.92" id="Line-2" stroke="#E8CAB2" stroke-width="21" stroke-linecap="square"></path>
            <path d="M374.56,295.08 C383.959426,278.904922 388.718643,266.719883 388.837653,258.524883 C388.956663,250.329883 384.549657,238.261589 375.616637,222.32" id="Line-2-Copy" stroke="#E8CAB2" stroke-width="23" stroke-linecap="square"></path>
            <path d="M244.652862,407.532418 C291.243484,406.608628 357.844756,376.681449 375.343991,333.913225 C385.925079,308.052989 383.762609,278.862482 383.289785,248.092213 C382.87568,221.143237 379.417789,186.85136 379.417789,160.260672 C379.417789,135.52 365.044205,128.944404 352.426303,118.727323 C332.349605,102.470638 292.138116,88.8141977 261.495025,85.5792512 C246.784599,84.0262929 230.047158,86.3386132 213.483058,91.435338 C183.287369,100.726463 153.667726,119.270671 137.953955,140.52 C118.683068,166.579526 118.369351,208.787845 118.923901,244.876666 C119.338831,271.879291 127.900369,341.379332 128.623182,342.604092 C153.142927,384.151226 196.045684,408.496192 244.652862,407.532418 Z" id="Oval" fill="#342513"></path>
            <rect id="Rectangle" stroke="#979797" fill="#E8CAB2" x="230.5" y="276.5" width="38" height="19"></rect>
            <path d="M196.130481,200.92 C211.615402,200.92 228.339686,206.433552 240.815702,215.192457 C251.346511,222.585711 259.12,232.351085 259.12,243.354744 C259.12,254.881118 253.374121,265.240066 244.304416,272.767428 C234.791668,280.662492 221.633364,285.48 207.133965,285.48 C194.460326,285.48 185.098143,280.982233 178.760755,273.720245 C171.050779,264.885415 167.76,252.28914 167.76,239.486154 C167.76,226.494505 167.86959,215.549696 173.286036,208.526514 C177.339183,203.27104 184.56648,200.92 196.130481,200.92 Z" id="Oval" stroke="#EAC1A1" stroke-width="12" fill="#E8CAB2"></path>
            <path d="M294.919688,200.32 C309.877522,200.32 320.840739,202.16382 327.843191,207.73006 C334.14907,212.742596 336.64,220.822112 336.64,232.252816 C336.64,245.893721 332.975859,259.299076 324.816653,268.741805 C318.047503,276.575808 308.140184,281.48 294.919688,281.48 C279.967237,281.48 266.401764,276.345532 256.593146,267.94969 C247.148846,259.86569 241.2,248.729059 241.2,236.361981 C241.2,225.079731 246.295955,216.548603 254.606385,210.698155 C264.651245,203.626688 279.039477,200.32 294.919688,200.32 Z" id="Oval-Copy" stroke="#EAC1A1" stroke-width="12" fill="#E8CAB2"></path>
            <path d="M319.556013,359.961692 C319.064238,360.364509 318.531039,360.786176 317.962034,361.225819 C312.430853,365.499507 303.584772,370.899823 293.461763,375.704656 C279.923114,382.130705 264.078093,387.54 250.823225,387.54 C238.193407,387.54 223.084675,381.895685 210.187608,375.277465 C200.894237,370.508506 192.735464,365.202528 187.458786,360.983145 L187.444,360.972 L187.955335,361.107459 L189.041982,361.393455 C189.404642,361.488637 189.76662,361.583345 190.13169,361.678478 L190.13169,361.678478 L191.212905,361.959019 C191.936897,362.146002 192.659804,362.33085 193.389044,362.514787 L193.389044,362.514787 L194.471522,362.785876 L195.563016,363.05497 L196.658931,363.320417 L196.658931,363.320417 L197.584118,363.540545 C210.717379,366.638443 225.048982,368.85122 250.02932,368.85122 C271.824191,368.85122 290.833358,365.218042 305.110952,362.47871 C310.739278,361.398847 315.597449,360.450544 319.556013,359.961692 Z" id="Oval" stroke="#EAC1A1" stroke-width="7" fill="#E8CAB2"></path>
            <ellipse id="Oval" fill="#333131" cx="214.96" cy="257.64" rx="27.88" ry="30.6"></ellipse>
            <ellipse id="Oval-Copy-2" fill="#333131" cx="289.52" cy="257.64" rx="27.88" ry="30.6"></ellipse>
            <path d="M254.793146,293.5 C292.4046,293.5 309.980945,310.650315 321.285176,329.60244 C322.215713,331.162533 322.735783,332.646089 322.810674,334.073075 C322.881714,335.42669 322.533458,336.703162 321.857957,337.908044 C319.978952,341.259595 315.91389,344.022162 310.621009,346.42501 C297.085337,352.569894 275.554926,355.86 254.793146,355.86 C233.515408,355.86 209.181282,352.404172 194.3249,345.983039 C188.836021,343.610669 184.616369,340.945473 182.906322,337.662729 C182.353543,336.601568 182.132423,335.478558 182.338879,334.290682 C182.578539,332.911763 183.328456,331.495719 184.528324,329.996579 C199.789292,310.929202 216.875257,293.5 254.793146,293.5 Z" id="Oval" stroke="#EABEA1" stroke-width="7" fill="#E8CAB2"></path>
            <path d="M224.196765,252.451421 C227.839969,254.449251 232.370775,253.672899 234.316604,250.71739 C236.262434,247.761882 234.886439,243.746409 231.243235,241.748579 C227.600031,239.750749 223.069225,240.527101 221.123396,243.48261 C219.177566,246.438118 220.553561,250.453591 224.196765,252.451421 Z" id="Oval-Copy-3" fill="#F4F4F4"></path>
            <path d="M288.476217,249.943793 C291.799658,251.538093 295.910312,250.948427 297.657621,248.626736 C299.40493,246.305045 298.127223,243.130507 294.803783,241.536207 C291.480342,239.941907 287.369688,240.531573 285.622379,242.853264 C283.87507,245.174955 285.152777,248.349493 288.476217,249.943793 Z" id="Oval-Copy-5" fill="#F4F4F4"></path>
            <path d="M226.24,304.24 C228.989829,294.700593 236.90501,285.161186 242.1809,294.700593 C245.698161,301.060198 247.884527,304.24 248.74,304.24 C254.048837,293.345948 258.750813,288.809773 262.845926,290.631475 C266.94104,292.453176 269.739064,296.989351 271.24,304.24" id="Path-3" stroke="#363636" stroke-width="5"></path>
            <path d="M195.08,193.738474 C195.08,193.738474 228.159899,215.344506 228.159899,219.255227 C228.159899,223.165948 220.682188,188.25181 228.159899,182.633843 C235.63761,177.015877 195.08,193.738474 195.08,193.738474 Z" id="Path-5" fill="#342513"></path>
            <path d="M195.08,87.7384745 C195.08,87.7384745 228.159899,109.344506 228.159899,113.255227 C228.159899,117.165948 220.682188,82.2518096 228.159899,76.6338433 C235.63761,71.015877 195.08,87.7384745 195.08,87.7384745 Z" id="Path-5-Copy-5" fill="#342513" transform="translate(212.080000, 94.520000) rotate(124.000000) translate(-212.080000, -94.520000) "></path>
            <path d="M255.08,83.7384745 C255.08,83.7384745 288.159899,105.344506 288.159899,109.255227 C288.159899,113.165948 280.682188,78.2518096 288.159899,72.6338433 C295.63761,67.015877 255.08,83.7384745 255.08,83.7384745 Z" id="Path-5-Copy-6" fill="#342513" transform="translate(272.080000, 90.520000) rotate(124.000000) translate(-272.080000, -90.520000) "></path>
            <path d="M325.08,115.738474 C325.08,115.738474 358.159899,137.344506 358.159899,141.255227 C358.159899,145.165948 350.682188,110.25181 358.159899,104.633843 C365.63761,99.015877 325.08,115.738474 325.08,115.738474 Z" id="Path-5-Copy-7" fill="#342513" transform="translate(342.080000, 122.520000) rotate(124.000000) translate(-342.080000, -122.520000) "></path>
            <path d="M135.08,128.738474 C135.08,128.738474 168.159899,150.344506 168.159899,154.255227 C168.159899,158.165948 160.682188,123.25181 168.159899,117.633843 C175.63761,112.015877 135.08,128.738474 135.08,128.738474 Z" id="Path-5-Copy-8" fill="#342513" transform="translate(152.080000, 135.520000) rotate(124.000000) translate(-152.080000, -135.520000) "></path>
            <path d="M259.68,198.591659 C259.68,198.591659 292.759899,215.567826 292.759899,218.640535 C292.759899,221.713245 285.282188,194.280708 292.759899,189.866591 C300.23761,185.452475 259.68,198.591659 259.68,198.591659 Z" id="Path-5-Copy" fill="#342513"></path>
            <path d="M139.32,260.36 C139.32,260.36 176.620291,229.213022 179.267722,230.757364 C181.915152,232.301706 153.154028,227.48361 154.476241,216.295598 C155.798454,205.107585 139.32,260.36 139.32,260.36 Z" id="Path-5-Copy-2" fill="#342513"></path>
            <path d="M327.68,229.08 C327.68,229.08 354.069995,217.20334 356.731622,218.756722 C359.393249,220.310104 332.989384,211.066534 331.807201,204.210299 C330.625018,197.354065 327.68,229.08 327.68,229.08 Z" id="Path-5-Copy-3" fill="#342513"></path>
            <path d="M337.88,259.68 C337.88,259.68 364.269995,247.80334 366.931622,249.356722 C369.593249,250.910104 343.189384,241.666534 342.007201,234.810299 C340.825018,227.954065 337.88,259.68 337.88,259.68 Z" id="Path-5-Copy-4" fill="#342513"></path>
            <path d="M368.48,284.84 C354.680472,328.556076 336.330511,353.130717 313.430115,358.563923 C296.594965,362.558127 269.742957,372.873131 248.61104,374.381049 C226.625202,375.949901 210.576429,368.610113 205.053926,367.53819 C199.692659,366.497622 242.451423,352.822657 300.007635,324.828206 C313.313227,318.356571 336.137349,305.027169 368.48,284.84 Z" id="Path-6" fill-opacity="0.124202702" fill="#FFFFFF"></path>
            <path d="M221.741031,117.324953 C173.947379,124.381435 145.084995,146.056167 134.780034,165.691451 C123.079969,187.984996 129.083841,224.20435 133.833663,241.43791 C136.985973,252.875291 139.656839,248.190923 135.976961,253.605959 C126.752333,267.180237 162.055622,197.778023 180.85874,189.300747 C199.661858,180.823471 216.534332,146.893448 255.846001,138.351647 C269.336034,135.420477 318.527889,130.047525 301.112898,131.26416 C300.062288,131.337557 294.376317,121.934527 271.128086,117.398223 C249.412651,113.161006 227.725468,116.441383 221.741031,117.324953 Z" id="Path-4" fill-opacity="0.0186178568" fill="#FFFFFF"></path>
            <g id="HANDSSSS" transform="translate(59.910510, 207.563695)">
                <path d="M136.623754,138.17469 C147.877996,129.278988 161.481694,127.121865 177.074715,114.456055 C180.886152,111.385556 181.43493,108.198455 176.675993,104.622684 C171.36399,100.638808 160.84717,99.4922289 152.131027,104.020244 C140.769602,106.71179 139.033233,103.325494 124.60208,108.698869 C115.148516,90.9511873 98.1363896,102.081748 88.8243094,60.5862813 C90.8022136,45.1469258 99.4350707,44.9852806 104.638506,40.6211506 C108.540586,37.3484694 112.486334,33.4855504 124.60208,27.3711506 C128.277496,25.5162946 130.683831,21.7019143 136.623754,19.8492556 C137.267543,19.6484584 150.5029,19.2553763 151.16949,19.3975756 C161.883693,19.3975756 171.941408,6.56222441 153.80949,2.59942562 C134.579031,-1.60346352 131.967713,-0.284424848 114.153855,3.52940712 C98.9381207,8.90278037 87.4909494,18.5418163 77.4628837,29.7695445 C62.0199196,47.1091205 69.252646,93.5164146 68.6395575,117.142742 C63.6876918,124.673239 62.03707,134.433734 57.0894903,141.964232 C75.0276801,146.880916 82.5819566,145.107606 100.524433,150 C102.749558,146.545688 104.970395,143.071942 107.191231,139.59334 C116.987782,139.112359 126.805767,138.631379 136.623754,138.17469 Z" id="Path" stroke="#3C3C3C" stroke-width="3" fill="#735E64"></path>
                <path d="M270.173974,139.931951 C260.196519,139.446455 250.24085,138.960959 240.263395,138.499983 C228.822,129.520772 214.997344,127.343399 199.151054,114.558687 C195.282068,111.459363 194.720019,108.242343 199.56061,104.633003 C204.954534,100.611729 215.62039,99.4543861 224.499889,104.024908 C236.028423,106.741721 237.810422,103.323637 252.475974,108.747454 C262.087444,90.8331646 279.375889,102.068214 288.834863,60.1832046 C284.813384,29.0036121 268.474757,7.6761438 210.331032,19.994976 C199.495255,15.4440698 190.851032,8.18125547 206.353122,4.7435562 C225.898475,0.413329453 244.995062,-1.25893208 263.09826,2.59070265 C278.556778,8.01451905 290.18988,17.7440425 300.380826,29.0771723 C316.057193,46.5795255 308.724418,93.4224733 309.347464,117.270595 C314.379761,124.871786 316.057193,134.723909 321.08949,142.3251 C302.855584,147.28794 295.156823,145.497983 276.944701,150.436305 C274.687791,146.949565 272.430883,143.443209 270.173974,139.931951" id="Path" stroke="#343434" stroke-width="3" fill="#735E64"></path>
                <path d="M46.1441798,142.609602 C44.3130852,142.025518 43.3837073,140.356704 44.1194645,138.903082 L49.0097622,129.061481 C49.7178596,127.585899 51.8200238,126.870066 53.6787796,127.45415 L112.594698,145.885744 C114.420261,146.469828 115.349639,148.138641 114.613882,149.587872 L109.723584,159.433865 C109.015486,160.909447 106.913322,161.620888 105.060098,161.058762 L46.1441798,142.609602 Z" id="Path" fill="#484848" transform="translate(79.366708, 144.250719) rotate(20.000000) translate(-79.366708, -144.250719) "></path>
                <path d="M264.14418,142.609602 C262.313085,142.025518 261.383707,140.356704 262.119464,138.903082 L267.009762,129.061481 C267.71786,127.585899 269.820024,126.870066 271.67878,127.45415 L330.594698,145.885744 C332.420261,146.469828 333.349639,148.138641 332.613882,149.587872 L327.723584,159.433865 C327.015486,160.909447 324.913322,161.620888 323.060098,161.058762 L264.14418,142.609602 Z" id="Path-Copy" fill="#484848" transform="translate(297.366708, 144.250719) rotate(126.000000) translate(-297.366708, -144.250719) "></path>
                <g id="Clipped" transform="translate(56.589490, 182.936305) rotate(10.000000) translate(-56.589490, -182.936305) translate(9.089490, 126.436305)">
                    <mask id="mask-2" fill="white">
                        <use xlink:href="#path-1"></use>
                    </mask>
                    <g id="Path"></g>
                    <path d="M23.2078575,0.390859693 C21.1522206,-0.750633735 18.8224996,0.69937143 18.0112083,3.55310599 C20.7358185,15.8782143 21.5147473,24.1226011 20.347995,28.2862662 C17.5715797,38.194164 10.8778994,51.0571216 0.26695403,66.8751391 C-0.516929057,69.7674371 -0.252866329,74.4514064 1.80277057,75.5851875 C14.4804343,87.3900637 24.2817737,95.2136028 31.2067886,99.0558048 C39.6719437,103.752522 51.2195846,109.428085 65.8497112,116.082493 C67.9053481,117.223987 59.718577,116.45662 60.5298682,113.564322 C64.7874565,87.2616983 69.5955421,68.8271649 74.9541247,58.2607224 C77.1962482,53.8395403 83.789222,49.7926367 94.733046,46.1200115 C95.516929,43.2662789 94.5192594,39.957491 92.4636239,38.8082833 L23.2078575,0.390859693 Z" id="Path" stroke="#E4E4E4" stroke-width="5" fill="#F9F9F9" mask="url(#mask-2)"></path>
                </g>
                <g id="Clipped-Copy" transform="translate(319.589490, 185.936305) scale(-1, 1) rotate(5.000000) translate(-319.589490, -185.936305) translate(272.089490, 123.436305)">
                    <mask id="mask-4" fill="white">
                        <use xlink:href="#path-3"></use>
                    </mask>
                    <g id="Path"></g>
                    <path d="M23.6608544,0.40208323 C21.6082441,-0.860925143 19.2819531,0.743436844 18.4718563,3.90095887 C21.192455,17.5381071 21.970237,26.6601302 20.8052024,31.2670283 C18.032875,42.2296476 11.3490498,56.4619005 0.753727098,73.9637871 C-0.0290018675,77.1639778 0.234672077,82.3465678 2.28728243,83.6010428 C14.9462807,96.6625788 24.7331894,105.318954 31.6480086,109.570168 C40.1007003,114.766863 51.6313394,121.046604 66.2399259,128.409392 C68.2925363,129.672401 60.1178186,128.823346 60.9279154,125.623155 C65.1792352,96.5205486 69.9802417,76.1236112 75.3309349,64.4323433 C77.5697573,59.5405149 84.1530241,55.0628079 95.0807353,50.9992222 C95.8634643,47.8417023 94.8672636,44.1806854 92.8146546,42.9091415 L23.6608544,0.40208323 Z" id="Path" stroke="#E8E8E8" stroke-width="5" fill="#F9F9F9" mask="url(#mask-4)"></path>
                </g>
            </g>
            <g id="HawToo-(6)">
                <circle id="Oval-Main-Border" stroke="#162CA8" stroke-width="17" cx="250" cy="250" r="241.5"></circle>
                <path d="M253.693222,195.877195 C253.693222,195.877195 263.422604,206.090129 263.422604,207.938685 C263.422604,209.78724 261.223278,193.283708 263.422604,190.628157 C265.621931,187.972605 253.693222,195.877195 253.693222,195.877195 Z" id="Path-5-Copy-12" fill="#342513" transform="translate(258.693222, 199.082748) rotate(124.000000) translate(-258.693222, -199.082748) "></path>
                <path d="M301.693222,188.877195 C301.693222,188.877195 311.422604,199.090129 311.422604,200.938685 C311.422604,202.78724 309.223278,186.283708 311.422604,183.628157 C313.621931,180.972605 301.693222,188.877195 301.693222,188.877195 Z" id="Path-5-Copy-16" fill="#342513" transform="translate(306.693222, 192.082748) rotate(124.000000) translate(-306.693222, -192.082748) "></path>
                <path d="M340.693222,214.877195 C340.693222,214.877195 350.422604,225.090129 350.422604,226.938685 C350.422604,228.78724 348.223278,212.283708 350.422604,209.628157 C352.621931,206.972605 340.693222,214.877195 340.693222,214.877195 Z" id="Path-5-Copy-17" fill="#342513" transform="translate(345.693222, 218.082748) rotate(96.000000) translate(-345.693222, -218.082748) "></path>
                <path d="M169.130894,209.293407 C169.130894,209.293407 179.833214,217.236801 179.833214,218.674566 C179.833214,220.112331 177.413955,207.276251 179.833214,205.210822 C182.252474,203.145393 169.130894,209.293407 169.130894,209.293407 Z" id="Path-5-Copy-10" fill="#342513" transform="translate(174.630894, 211.786615) rotate(124.000000) translate(-174.630894, -211.786615) "></path>
                <path d="M145.301856,214.378041 C145.301856,214.378041 156.004177,223.456206 156.004177,225.099366 C156.004177,226.742526 153.584917,212.07272 156.004177,209.71223 C158.423436,207.35174 145.301856,214.378041 145.301856,214.378041 Z" id="Path-5-Copy-11" fill="#342513" transform="translate(150.801856, 217.227422) rotate(124.000000) translate(-150.801856, -217.227422) "></path>
                <path d="M121.574837,315.53527 C121.574837,315.53527 127.412466,325.748205 127.412466,327.59676 C127.412466,329.445315 126.09287,312.941783 127.412466,310.286232 C128.732062,307.630681 121.574837,315.53527 121.574837,315.53527 Z" id="Path-5-Copy-13" fill="#342513" transform="translate(124.574837, 318.740823) rotate(146.000000) translate(-124.574837, -318.740823) "></path>
                <path d="M267.037814,316.190526 C267.037814,316.190526 269.956629,324.701305 269.956629,326.241768 C269.956629,327.78223 269.296831,314.029287 269.956629,311.816328 C270.616427,309.603368 267.037814,316.190526 267.037814,316.190526 Z" id="Path-5-Copy-18" fill="#342513" transform="translate(268.537814, 318.861820) rotate(316.000000) translate(-268.537814, -318.861820) "></path>
                <path d="M362.574837,328.53527 C362.574837,328.53527 368.412466,338.748205 368.412466,340.59676 C368.412466,342.445315 367.09287,325.941783 368.412466,323.286232 C369.732062,320.630681 362.574837,328.53527 362.574837,328.53527 Z" id="Path-5-Copy-19" fill="#342513" transform="translate(365.574837, 331.740823) rotate(55.000000) translate(-365.574837, -331.740823) "></path>
                <path d="M212.574837,323.53527 C212.574837,323.53527 218.412466,333.748205 218.412466,335.59676 C218.412466,337.445315 217.09287,320.941783 218.412466,318.286232 C219.732062,315.630681 212.574837,323.53527 212.574837,323.53527 Z" id="Path-5-Copy-15" fill="#342513" transform="translate(215.574837, 326.740823) rotate(228.000000) translate(-215.574837, -326.740823) "></path>
                <path d="M271,248.816427 L266.769231,288 C266.769231,288 250.692308,263.680422 231.230769,288 L227,248.816427 C227,248.816427 249,210.979467 271,248.816427 Z" id="Path" fill="#171717" fill-rule="nonzero"></path>
                <path d="M138.32,269.85537 C138.32,269.85537 171.629646,239.913656 190.896944,231.08 C190.896944,231.08 224.521877,215.685714 240,233.984456 C240,233.984456 235.830918,273.602321 229.130824,281.256031 C224.664094,286.358503 194.39382,282.558283 138.32,269.85537 Z" id="Path" fill="#3F3F3F" fill-rule="nonzero"></path>
                <path d="M140,271.908163 C145.794925,272.993237 223.122465,287.345915 229.253327,281.681377 C235.565419,275.850681 229.058837,245.005388 228.793623,243.754155 C213.985845,229.658269 180.926928,239.068954 180.595412,239.167139 C162.918903,245.720379 142.006785,269.581927 140,271.908163 Z M221.305831,283 C198.691165,283 142.198931,272.341561 139.337666,271.799393 L139,271.736055 L139.155504,271.553643 C139.377652,271.292692 161.601337,245.233102 180.363956,238.271041 C180.479473,238.235572 188.987741,235.783143 199.250978,235.147234 C208.763355,234.559462 221.763456,235.451255 229.694139,243.044157 L229.738568,243.112561 C230.022917,244.429982 236.678472,275.483103 230.120663,281.548304 C229.014366,282.571839 225.83765,283 221.305831,283" id="Shape" fill="#6B6B6B" fill-rule="nonzero"></path>
                <path d="M226.06255,285.34758 C226.351734,306.000057 205.323559,323.203623 179.093382,323.774367 C152.863203,324.345111 131.366203,308.066852 131.077019,287.414376 C130.787885,266.765548 151.816059,249.561982 178.046237,248.991238 C204.276415,248.420494 225.773416,264.698752 226.06255,285.34758" id="Path" fill="#FFFFFF" fill-rule="nonzero"></path>
                <g id="Clipped" transform="translate(125.000000, 244.000000)">
                    <mask id="mask-6" fill="white">
                        <use xlink:href="#path-5"></use>
                    </mask>
                    <g id="Path"></g>
                    <path d="M52.5,9 C29.0657222,9 10,24.9227798 10,44.5019304 C10,64.0772193 29.0657222,80 52.5,80 C75.9342778,80 95,64.0772193 95,44.5019304 C95,24.9227798 75.9342778,9 52.5,9 Z M52.4976818,87 C23.5502319,87 0,67.4857288 0,43.5019247 C0,19.5142702 23.5502319,0 52.4976818,0 C81.4451316,0 105,19.5142702 105,43.5019247 C105,67.4857288 81.4451316,87 52.4976818,87" id="Shape" fill="#020202" fill-rule="nonzero" mask="url(#mask-6)"></path>
                </g>
                <path d="M366,268.892101 C366,268.892101 341.954191,235.917371 321.474823,227.083715 C321.474823,227.083715 284.968125,214.719786 268.512437,233.018528 C268.512437,233.018528 260.927129,273.602321 268.050387,281.256031 C275.173646,288.90974 366,268.892101 366,268.892101" id="Path" fill="#323232" fill-rule="nonzero"></path>
                <path d="M268.315187,243.790212 C268.036774,245.040296 261.318333,275.85725 267.835951,281.682589 C274.171003,287.341922 354.016389,273.002431 360,271.918354 C357.927873,269.594254 336.334839,245.75463 318.055385,239.19735 C317.996052,239.182258 309.346971,236.77264 298.91787,236.151371 C285.006315,235.323851 274.718702,237.89193 268.315187,243.790212 Z M276.062802,283 C271.386351,283 268.112835,282.571839 266.97123,281.548304 C260.204131,275.483103 267.072095,244.429982 267.36552,243.112561 L267.406782,243.044157 C275.595158,235.451255 289.014739,234.559462 298.826119,235.147234 C309.412321,235.783143 318.196714,238.235572 318.283824,238.260908 C337.672759,245.233102 360.610295,271.292692 360.839533,271.553643 L361,271.736055 L360.651559,271.799393 C357.698975,272.341561 299.403798,283 276.062802,283" id="Shape" fill="#5C5C5C" fill-rule="nonzero"></path>
                <path d="M271,288.251509 C271,309.939913 292.265827,327.520548 318.5,327.520548 C344.729549,327.520548 366,309.939913 366,288.251509 C366,266.566937 344.729549,248.986301 318.5,248.986301 C292.265827,248.986301 271,266.566937 271,288.251509" id="Path" fill="#FFFFFF" fill-rule="nonzero"></path>
                <g id="Clipped" transform="translate(267.000000, 244.000000)">
                    <mask id="mask-8" fill="white">
                        <use xlink:href="#path-7"></use>
                    </mask>
                    <g id="Path"></g>
                    <path d="M52.5023068,8.31882202 C29.0646873,8.31882202 10,24.5763372 10,44.5670889 C10,64.5538978 29.0646873,80.8114139 52.5023068,80.8114139 C75.9353127,80.8114139 95,64.5538978 95,44.5670889 C95,24.5763372 75.9353127,8.31882202 52.5023068,8.31882202 Z M52.5023188,89.130236 C23.5548687,89.130236 0,69.1381486 0,44.5670898 C0,19.9920863 23.5548687,0 52.5023188,0 C81.4497678,0 105,19.9920863 105,44.5670898 C105,69.1381486 81.4497678,89.130236 52.5023188,89.130236" id="Shape" fill="#000000" fill-rule="nonzero" mask="url(#mask-8)"></path>
                </g>
                <path d="M224.430178,268 C214.205823,258.777386 197.847783,256.575707 185.92323,256.352485 C172.984117,256.110465 162.333554,258.074823 162.227002,258.09597 L162,257.785808 C162.106552,257.764661 172.877564,255.774456 185.951026,256.021176 C198.037723,256.249098 214.627399,258.483672 225,267.83787 L224.430178,268" id="Path" fill="#000000" fill-rule="nonzero"></path>
                <path d="M355.470657,268 C345.894764,258.782086 330.587219,256.578057 319.427636,256.352485 C307.304824,256.105765 297.30806,258.074823 297.212605,258.09597 L297,257.785808 C297.099794,257.764661 307.183336,255.774456 319.427636,256.021176 C330.752096,256.249098 346.285262,258.483672 356,267.83787 L355.470657,268" id="Path" fill="#000000" fill-rule="nonzero"></path>
            </g>
            <path d="M213,288.005433 C213,304.567651 196.660268,318 176.5,318 C156.339735,318 140,304.567651 140,288.005433 C140,271.432349 156.339735,258 176.5,258 C196.660268,258 213,271.432349 213,288.005433" id="Path" fill="#4DC4E7" fill-rule="nonzero"></path>
            <path d="M357,289.505705 C357,306.896033 340.8841,321 321,321 C301.115903,321 285,306.896033 285,289.505705 C285,272.103967 301.115903,258 321,258 C340.8841,258 357,272.103967 357,289.505705" id="Path-Copy-2" fill="#4DC4E7" fill-rule="nonzero"></path>
            <path d="M298.039553,284.44989 C296.152957,294.491351 297.807739,305.957564 301.735613,310.060394 C305.663488,314.163223 310.377047,309.349011 312.263643,299.30755 C314.15024,289.266089 312.495457,277.799876 308.567583,273.697047 C304.639709,269.594217 299.926149,274.408429 298.039553,284.44989 Z" id="Oval-Copy-6" fill="#F4F4F4" opacity="0.363699777"></path>
            <path d="M153.639996,304.603098 C156.303666,313.088695 161.462692,315.02973 165.163002,308.938522 C168.863311,302.847313 169.703674,291.030478 167.040004,282.544881 C164.376334,274.059284 159.217308,272.118248 155.516998,278.209457 C151.816689,284.300665 150.976326,296.117501 153.639996,304.603098 Z" id="Oval-Copy-5" fill="#F4F4F4" opacity="0.363699777"></path>
        </g>
    </g>
</svg>