<?xml version="1.0" encoding="UTF-8"?>
<svg width="121px" height="154px" viewBox="0 0 121 154" version="1.1" xmlns="http://www.w3.org/2000/svg" xmlns:xlink="http://www.w3.org/1999/xlink">
    <title>hawtoo-icon</title>
    <defs>
        <polygon id="path-1" points="0 0 108.062882 0 108.062882 154 0 154"></polygon>
        <polygon id="path-3" points="0 0 8.38313689 0 8.38313689 6.56131939 0 6.56131939"></polygon>
        <polygon id="path-5" points="0 0 7.46401886 0 7.46401886 8.8478953 0 8.8478953"></polygon>
    </defs>
    <g id="hawtoo-icon" stroke="none" stroke-width="1" fill="none" fill-rule="evenodd">
        <g id="icon">
            <g id="Clipped" transform="translate(4.344145, 0.000000)">
                <mask id="mask-2" fill="white">
                    <use xlink:href="#path-1"></use>
                </mask>
                <g id="Path"></g>
                <path d="M40.4991685,144.513792 C41.6831585,144.512571 43.7893179,143.690576 43.9968213,144.990391 C43.6373522,145.954573 41.8979855,145.540829 40.6578476,145.625042 C41.0380671,147.734648 41.4311029,149.830218 42.0890106,151.661554 C42.8555526,151.95447 44.1005729,151.769566 45.1100159,151.820216 C45.2577094,150.591189 45.9204997,149.877207 45.9052422,148.484635 C45.3382697,148.514537 43.727067,149.080841 43.6788529,148.167309 C43.7075372,147.08413 45.2247531,147.48811 46.2226003,147.372775 C46.6498132,145.893548 46.6003784,143.938334 47.0178266,142.449344 C44.6034635,142.531116 42.4234574,142.379776 40.3398792,142.131408 C40.2904446,143.027853 40.6218398,143.543507 40.4991685,144.513792 Z M63.5527951,139.272425 C63.5363168,140.136528 63.5991782,140.920078 63.8707634,141.496146 C64.3126236,141.066536 66.2576628,140.867597 66.2558318,141.814082 C65.8255675,142.38954 64.7380055,142.308988 63.7120844,142.290071 C63.9153156,144.151918 64.1923937,145.939317 64.5073106,147.69071 C65.7260879,147.69071 66.9448651,147.69071 68.1636424,147.69071 C68.7477034,146.950487 68.9875529,145.866088 68.9588685,144.513792 C68.1837824,144.335601 66.6171318,144.947063 66.5738002,144.037193 C66.5799033,143.003444 68.4187495,143.067519 69.1175476,143.243268 C69.0827603,141.710341 69.867001,139.353588 69.1175476,138.160565 C67.3202021,138.588344 65.2952131,138.789114 63.5527951,139.272425 Z M7.90526875,124.023704 C8.43257148,125.562734 9.38525611,126.675815 10.131658,127.995158 C12.6400077,126.886348 15.4736496,128.679849 15.2191529,130.694867 C15.0421646,132.099644 13.477345,131.859819 12.6754055,132.919198 C13.7269593,133.774147 14.2292396,135.178924 15.5371213,135.778181 C18.0375371,135.258255 18.7015479,132.903332 18.8760949,130.060216 C17.2313254,128.049469 15.6561306,125.969765 15.0604738,122.912454 C12.481939,122.479793 9.58970802,123.041215 7.90526875,124.023704 Z M39.3859739,115.764692 C38.5046948,119.013619 34.8495837,120.805289 33.0259951,122.753791 C33.756529,127.90057 33.4117073,134.121985 34.1391897,139.272425 C37.4867076,139.793572 40.66273,140.485586 43.9968213,141.019548 C43.7569718,129.551884 43.0539015,117.188386 42.8842369,105.122686 C40.6419798,105.508969 39.0661746,104.385514 37.3188739,104.80475 C38.9752393,107.347628 40.4521752,111.834125 39.3859739,115.764692 Z M28.2564686,124.34164 C31.199355,122.297941 34.2166984,120.410463 36.2062897,118.147076 C38.4552602,115.588333 38.5400925,108.761558 36.3649688,105.757948 C35.8730636,105.078749 34.4309152,104.068189 33.1852844,104.328762 C32.5487372,106.97477 29.9140545,107.625898 28.8924056,109.888064 C30.2777958,112.272279 32.8001826,115.184352 32.3900583,118.305739 C30.8673496,117.918235 30.6140733,116.020994 30.0056002,114.812105 C29.3299936,113.468963 28.5927462,112.183794 27.9385002,110.999315 C26.3779527,112.88191 24.5708422,114.517968 22.8510054,116.241291 C23.4057718,118.350897 25.9000846,120.161484 25.2354635,122.435855 C23.3624403,121.501575 22.7442022,119.312638 22.0557791,117.194489 C20.6844258,118.440602 16.8456132,119.986345 16.4910266,121.959257 C15.9826432,124.791388 18.7406074,126.945542 19.9886793,128.947745 C23.5369872,128.256951 25.3532521,126.357879 28.2564686,124.34164 Z M76.9080793,111.475913 C78.7225133,111.192761 80.4191587,112.260684 82.4734422,112.429111 C87.4260598,112.835532 92.8217582,111.501543 96.7826318,110.523326 C96.3920372,109.033115 96.911406,107.616744 96.7826318,105.916611 C95.3081371,105.219105 94.1094999,104.246379 92.1711741,104.010826 C91.733586,105.955666 92.0448411,108.649884 90.5813319,109.570128 C89.4229748,108.067713 90.9139477,105.58708 91.0592,103.852163 C88.8645465,103.291351 86.5032801,102.897135 83.9039949,102.740302 C83.6317994,104.035846 82.8164331,105.655427 82.9500896,107.187744 C83.0111202,107.885251 83.5695483,108.130568 83.2680582,108.776204 C80.1426908,109.155774 81.8521527,104.160335 82.6321212,102.58164 C80.7914441,102.302149 78.5101275,102.463863 76.4314317,102.422367 C76.5840078,105.447335 76.6548031,108.552855 76.9080793,111.475913 Z M98.0551157,105.281349 C97.4606795,107.442215 98.5378663,110.113243 98.0551157,112.429111 C98.9315124,114.631473 101.473429,116.659917 104.732453,115.447367 C105.098635,114.277533 105.173092,112.817835 105.209711,111.31725 C100.99312,111.613828 102.469445,106.086258 105.685748,106.39321 C105.82978,104.683922 105.887148,102.889201 105.845647,100.99318 C102.605543,100.783257 98.5165056,103.601964 98.0551157,105.281349 Z M49.561574,104.328762 C49.9393521,115.017146 50.6650038,125.357693 51.6286738,135.460245 C54.2096499,136.3811 57.2733762,135.892296 59.4192055,135.301582 C63.5759865,134.155548 67.6894361,132.704393 71.1846476,131.330739 C70.3882008,120.90903 71.0766238,109.861824 69.7534845,99.8819301 C63.2171277,101.557654 56.4946284,103.048475 49.561574,104.328762 Z M70.8666792,99.5633838 C71.4550123,110.094326 71.8352318,120.83336 72.2978422,131.489402 C71.8687984,131.696274 71.5380137,132.000785 71.502616,132.601262 C69.5600182,133.32684 67.0614332,134.425275 64.3480212,135.142919 C61.6852646,135.846528 58.8546741,136.820474 56.3988105,137.048704 C54.9218746,137.186009 53.0696017,137.374574 51.7873529,136.889431 C49.5591326,136.046687 49.8825939,131.033551 49.7208633,127.995158 C49.2881578,119.867348 48.4190847,112.286925 48.766958,104.487425 C47.3748544,104.844416 45.4047928,104.622898 44.1561106,105.122686 C44.9080052,116.431687 45.4646026,129.972951 44.7920475,141.17821 C48.1090501,140.522811 51.1764385,140.035838 54.6496791,139.430478 C56.8064936,139.05579 59.0066398,138.403441 61.1677267,138.001902 C65.6217258,137.174414 70.1983962,136.738702 73.5697159,134.507658 C75.448232,128.073879 75.0588579,119.676342 75.0002687,111.793849 C74.9685329,107.501409 74.8910242,103.128416 74.5236213,99.086785 C74.5144667,98.9903669 74.4998194,98.8988306 74.3643319,98.9281222 C73.2877554,99.2289715 72.1428251,99.4620838 70.8666792,99.5633838 Z M2.34051604,76.3735868 C2.58768931,79.5767457 4.14396465,86.3888745 7.26933182,86.2216684 C8.15854498,86.1740694 9.5872668,84.7589189 9.97236856,83.6800115 C11.3486043,79.8269449 10.1481361,74.6716226 9.17714246,71.2908832 C8.28914998,68.198178 7.73377334,65.3605537 4.56690534,65.572918 C2.46135633,67.7581937 1.97921602,71.6869301 2.34051604,76.3735868 Z M18.5581266,67.6379761 C17.4028208,64.9675582 14.9530603,61.4348685 12.9933739,61.4433965 C10.8542581,61.4525657 9.0422653,63.6170931 7.11065276,64.3023946 C7.68250764,64.5580859 8.43074053,64.9657274 8.85917392,65.572918 C11.0703056,68.7022377 13.2918125,79.3332594 11.4029213,84.633209 C11.0648129,85.5833554 9.4731399,86.5420452 9.81307924,87.0155928 C12.0107844,87.4671717 13.9686399,88.1585756 16.3317373,88.4453893 C22.0344186,84.7412218 21.3307379,74.0455144 18.5581266,67.6379761 Z M98.8491213,69.0677724 C102.938769,66.4138311 99.486889,56.4351578 99.0084106,51.5959408 C98.3553854,51.1364286 97.7322649,50.6464044 96.9419211,50.3248071 C98.1845002,55.9664922 98.7453697,62.2885968 98.8491213,69.0677724 Z M10.131658,45.2421034 C6.26416111,45.7064975 6.15125474,48.3439623 6.3154265,52.2305922 C6.45640678,55.5777682 6.37523637,59.1238831 6.63339504,62.5552724 C9.01358097,61.9706609 10.7553887,59.6017023 13.3113422,59.6956796 C15.8642443,59.7908773 18.7845493,63.8471542 20.1479687,67.0027143 C23.024942,73.6622828 23.3789184,83.0221708 19.5120317,87.9687904 C17.07997,91.079803 14.0498103,89.9417021 9.97236856,88.7633252 C10.011428,91.0529523 10.3654045,93.0295254 10.6083055,95.1165522 C17.8684829,99.6701762 27.0706478,102.283842 38.2727792,102.898965 C39.7185897,92.8281456 39.1516171,80.6007315 37.9554211,70.1790226 C36.9801553,61.6899497 35.913954,53.5816674 32.867316,47.4658245 C26.1582433,46.9434576 17.4705646,44.3615247 10.131658,45.2421034 Z M83.1093791,33.4888473 C74.9752463,32.5252755 66.6110289,32.6241346 58.3066212,33.3289639 C60.588548,39.142127 52.4226795,40.7446217 46.0639212,40.3186731 C44.0450353,40.1825891 40.4418,39.9964654 40.0219108,38.5709407 C39.6032421,37.1478567 41.2254305,35.6069963 40.975816,34.9180334 C29.2195286,36.5150361 18.950552,39.5985876 9.81307924,43.8123071 C15.5615334,43.0177723 19.8373239,44.0838646 25.5540421,44.607452 C28.0489652,44.8350723 32.4993026,45.0254677 33.9805107,46.1953011 C35.7967756,47.6293692 36.9862582,53.848343 37.6374527,56.6780341 C38.5999022,60.865513 39.1162196,64.9663376 39.5452632,69.0677724 C40.5327353,78.5118739 41.4402575,87.6685516 40.8171371,96.2278024 C40.6328252,98.7554239 39.4286953,101.148792 39.8632318,103.6935 C50.23596,103.33895 59.2654088,101.008436 68.1636424,98.7694593 C77.1442669,96.5091238 86.073626,94.9127314 94.5562425,91.7803605 C96.9541272,83.7263897 97.7017496,74.2139413 97.1006002,64.7789934 C96.4402511,54.4311239 94.3029662,44.8838916 91.3771684,37.6183532 C91.6664526,36.5839935 93.1366751,36.729231 93.1256897,35.3946322 C90.6258842,33.6401873 86.8432194,33.9306622 83.1093791,33.4888473 Z M45.5866634,33.3289639 C47.6867198,35.5020348 44.8042536,36.5925368 44.1561106,34.1234987 C42.9831062,35.2292566 41.7173355,36.2410376 41.2937845,38.0943417 C46.6772768,38.7241112 55.528517,39.6400842 57.3521056,35.2359693 C56.1040338,31.4671162 48.8255472,30.7281134 45.5866634,33.3289639 Z M30.9595055,12.6808237 C32.9411628,12.3366474 33.0168405,6.60342603 29.6876317,7.59873038 C27.0120586,8.398147 28.4804503,13.1116545 30.9595055,12.6808237 Z M62.4402107,2.03942804 C61.7401918,2.67163834 61.8817824,4.51090708 62.2809213,5.37439921 C66.2826852,6.52165371 66.0092689,0.604139419 62.4402107,2.03942804 Z M55.7622635,30.4699813 C56.07657,31.1095147 56.9010908,31.2394961 57.1934265,31.8997776 C60.3596841,30.9746513 65.4679292,31.1418574 69.9127739,30.9471903 C75.4946149,30.7018732 82.3519918,31.0558134 88.8328107,31.8997776 C91.2642622,32.2171033 95.0060365,33.0354376 95.0335002,35.5532951 C95.0481475,36.9214572 94.2370534,37.1472465 93.7610162,38.0943417 C94.9328001,41.3713401 95.6065758,45.1469059 96.9419211,48.259749 C97.9367168,48.9133178 99.9006753,49.3008214 100.598253,50.48347 C101.111519,51.3536747 101.439862,53.8300358 101.870127,56.0427723 C102.426724,58.9029755 103.469123,64.4409195 102.506674,67.6379761 C101.932378,69.5455918 99.9281389,70.5354038 99.3269895,71.6088191 C99.4258588,77.8540334 98.6733537,84.562421 96.9419211,89.7159126 C96.5086051,91.004133 96.078951,93.0685809 95.352079,93.6867557 C94.537323,94.3781596 92.2138953,94.9408026 90.9005209,95.2752151 C86.3073725,96.4432177 81.6367152,98.1634893 76.5901108,98.9281222 C76.6352734,99.4657451 76.843387,99.8404336 76.7494001,100.516582 C83.5518495,100.201087 91.6206798,100.886998 96.6239527,103.375564 C98.1344552,102.925206 99.6065088,100.323135 101.710837,99.5633838 C103.134677,99.0501705 105.71138,98.4917994 106.958232,99.086785 C109.02289,100.072326 107.454409,105.076918 107.593558,107.50507 C107.097381,108.544922 105.287829,108.272144 104.573163,109.093529 C105.563077,109.32237 106.869127,109.236326 107.27559,110.046727 C107.364694,112.358323 107.029027,114.247631 106.798942,116.241291 C103.58203,119.751402 96.4970095,117.120649 96.1460846,112.90571 C90.7155989,114.333065 82.4520815,115.596266 77.226658,113.223646 C75.9633285,122.34737 79.7392799,135.827611 71.3439369,138.001902 C70.7507213,141.484552 71.859644,148.264948 68.9588685,149.437833 C67.9164692,149.85951 64.9821271,150.149985 63.5527951,149.437833 C61.6443741,148.486466 62.1905963,142.771552 61.8036635,140.06635 C57.612095,140.961575 53.4638582,141.900126 48.9256371,142.449344 C48.5228364,144.465583 48.4990345,146.519046 47.9717317,148.802571 C47.6018875,150.403845 46.9372663,153.231706 45.7459527,153.726612 C44.4588214,154.260573 42.0200463,153.935925 41.1351055,153.408676 C39.2309567,152.274847 38.8196117,145.855103 38.5913581,142.290071 C36.5657588,141.17699 33.1334086,142.131408 32.2313791,140.06635 C31.8340712,139.156479 31.8835058,137.070063 31.7541214,135.460245 C31.472161,131.940981 31.4385942,128.219116 31.436153,124.659576 C27.6241936,126.357269 25.5357331,129.777064 20.9431948,130.694867 C20.4354218,133.245678 19.9551126,135.679322 18.0808687,136.889431 C17.3588789,137.356877 15.7891768,138.02143 14.741895,137.842629 C13.8679396,137.69312 12.801128,136.160803 12.1981476,135.460245 C11.5432914,134.699274 10.2854547,133.411663 10.4490162,132.283326 C10.6528577,130.884652 12.1511542,131.237982 12.9933739,130.218879 C11.947923,128.693884 11.0440627,130.447109 9.49511085,130.060216 C8.3910708,129.783776 5.68803406,125.081253 5.83877905,123.865041 C6.11402623,121.638269 10.9305461,120.678969 14.4239266,121.006669 C16.5679248,118.488201 19.8159632,116.392021 22.3737475,114.01818 C25.4881293,111.126855 28.0117367,107.616134 31.2774739,104.646088 C25.6278891,103.656886 18.6283114,101.551552 13.4700213,99.086785 C11.9161872,98.3447311 9.54759692,97.4952745 8.85917392,96.0691396 C7.86865051,94.0162863 8.52472743,91.5716577 8.06455808,88.7633252 C-1.48364927,87.6856382 -2.56266688,67.14307 4.88487373,62.8732085 C4.90379319,58.406849 3.64534625,53.3540472 4.08964762,49.0542837 C4.39540993,46.0933907 6.82442018,45.0871021 7.58730036,42.8591094 C17.547463,37.8770957 29.300699,33.8452285 42.7249476,32.8529753 C41.1991874,29.8316683 38.7427135,27.1087697 36.8422265,23.9587016 C34.9600487,20.8379254 33.21641,17.5853367 31.2774739,14.587219 C26.3315696,15.2645874 24.9333629,7.71284563 28.7337265,6.01027104 C31.4196747,5.84428528 33.1364601,6.77856545 33.8212213,8.8692538 C34.30031,10.3301725 33.4190309,11.9711125 33.6619319,13.3166957 C33.8798105,14.5200923 35.4733144,16.4539486 36.3649688,17.9221902 C39.1680954,22.5356179 41.98709,27.1502661 44.9507266,31.1058531 C47.0117234,29.9750752 50.3653444,29.3318803 53.5364844,29.8353299 C54.8992934,23.7005695 56.6276746,17.8953395 58.9425579,12.363498 C59.6584447,10.6511597 60.7600436,8.08143165 60.6916895,6.48625961 C60.6373723,5.24990989 59.5351632,3.88174779 60.0551423,2.35675375 C60.9229948,-0.949536176 66.4578425,-0.666384 67.2097371,2.51541645 C68.0251034,5.96694384 64.9760242,6.92380292 62.9168581,8.23338181 C60.602585,15.7173867 57.6761771,22.5874885 55.7622635,30.4699813" id="Shape" fill="#000000" mask="url(#mask-2)"></path>
            </g>
            <path d="M66.6250659,5.37500941 C66.2265372,4.51090708 66.0843364,2.67102814 66.7843552,2.03881768 C70.3534135,0.604749622 70.6268297,6.52104351 66.6250659,5.37500941" id="Path" fill="#FFF18D"></path>
            <path d="M34.0317762,7.59812018 C37.360985,6.60342603 37.2853073,12.3360372 35.3036501,12.6808237 C32.8245948,13.1110441 31.3562031,8.3975368 34.0317762,7.59812018" id="Path" fill="#FFF18D"></path>
            <path d="M107.327466,16.81094 C106.340604,18.2077833 105.415993,19.6668714 104.623819,21.2583819 C106.376612,20.9965882 107.591727,20.1990022 109.553245,20.1459111 C109.076597,18.7692057 108.586523,17.4059257 107.327466,16.81094 Z M108.281371,14.9051549 C109.914545,16.450287 111.545888,17.9972499 111.620345,21.0991088 C110.878825,22.1224842 109.261519,22.0047076 107.804724,22.3702423 C106.188028,22.7742224 102.33884,24.9228836 101.762713,23.0061143 C101.466105,22.0193534 103.058999,20.2081559 103.829203,18.8759981 C105.032722,16.793243 105.522797,14.6866884 108.281371,14.9051549" id="Shape" fill="#000000"></path>
            <path d="M109.553855,20.1459111 C107.591727,20.1977816 106.376612,20.995978 104.624429,21.2577717 C105.416604,19.6662612 106.341825,18.2077833 107.328076,16.8103298 C108.587744,17.4053154 109.077208,18.7692057 109.553855,20.1459111" id="Path" fill="#FFF18D"></path>
            <path d="M11.295508,27.6109987 C12.1413895,28.5666372 13.3864098,29.1231777 14.6344816,29.676667 C13.9491101,28.4354352 12.3617092,24.7123503 11.295508,27.6109987 Z M16.3836131,31.8997776 C14.5337815,31.2956383 9.40539626,29.8835388 9.8649552,26.9757369 C10.0565908,25.7625763 11.4804301,24.7636106 12.4087026,24.7526261 C13.8587851,24.734319 14.7211448,26.8530783 15.7470659,28.2462603 C16.5087254,29.2806201 17.8574975,30.3863781 16.3836131,31.8997776" id="Shape" fill="#000000"></path>
            <path d="M14.6344816,29.676667 C13.3864098,29.1231777 12.1413895,28.5666372 11.295508,27.6109987 C12.3617092,24.7123503 13.9491101,28.4354352 14.6344816,29.676667" id="Path" fill="#FFF18D"></path>
            <path d="M61.6962501,35.2353591 C59.8726615,39.6394739 51.0214214,38.7241112 45.6379291,38.0949519 C46.06148,36.2410376 47.3272508,35.2286464 48.5002551,34.1234987 C49.1483982,36.5925368 52.0308644,35.5020348 49.9308079,33.3295741 C53.1696917,30.7281134 60.4481783,31.4677266 61.6962501,35.2353591" id="Path" fill="#E4E8F4"></path>
            <path d="M65.3538024,94.798006 C65.1328723,95.3014554 65.1328723,96.2009518 65.3538024,96.7044012 C65.8280087,97.1498778 67.2640543,97.1498778 67.7382605,96.7044012 C67.9030426,96.2863856 67.9286754,95.7298452 67.8975499,95.1159419 C67.4032035,94.3824314 66.2594937,94.4275892 65.3538024,94.798006 Z M84.7510972,93.0514941 C87.1617982,94.1511497 88.4812757,91.0541727 86.8175867,89.8745754 C84.9567696,89.6976054 84.2652951,91.3977389 84.7510972,93.0514941 Z M51.2032919,87.8095173 C55.9014128,87.7314064 61.3764508,87.6044761 61.0609234,83.0441395 C57.2190594,81.2359931 46.6186876,84.4684437 51.2032919,87.8095173 Z M80.1396395,79.5505054 C78.3984418,80.2895081 74.8519649,80.4011824 74.8934656,82.250215 C77.3102698,82.6468721 81.4029689,82.1257257 82.6839972,80.3444299 C82.3611464,79.9190915 80.7310241,79.2990858 80.1396395,79.5505054 Z M92.2236604,77.4854473 C92.5605482,81.5246374 102.634227,77.3518044 98.1063814,74.1498658 C95.7145997,74.5758146 92.008223,74.9108373 92.2236604,77.4854473 Z M58.3578867,60.80754 C54.5404348,64.1486137 52.5892925,73.3278701 57.0854027,77.3267845 C58.7228486,78.782211 60.6440859,79.155679 63.1280234,78.4386449 C64.0471414,78.1731898 65.16827,78.0767716 65.8304499,77.8027731 C70.2386763,75.9824218 72.869087,65.5027402 69.0101342,61.6014645 C67.6046039,60.1802115 64.2442695,59.381405 61.2196027,59.6956796 C59.8744923,59.8360351 59.1817973,60.0862343 58.3578867,60.80754 Z M86.6589076,56.0421621 C83.5683278,59.0634691 83.056893,68.0096133 86.340329,71.2908832 C87.4339939,72.3826057 90.4104469,73.3516696 92.2236604,72.5614065 C92.5843501,72.4045744 92.8437293,71.6399415 93.3362447,71.2908832 C93.9776742,70.8368633 94.7857168,70.8655447 95.2446655,70.4963484 C97.7731553,68.4636332 99.4197558,60.3461972 97.3111552,56.9953598 C96.2852341,55.3660143 92.7259407,54.2822249 89.838592,54.7716387 C88.7858175,54.9504397 87.4126332,55.3056003 86.6589076,56.0421621 Z M45.6379291,50.8014059 C45.4328669,52.1494299 45.4609408,54.1266132 46.4331552,54.7716387 C46.7907934,53.7732834 46.4441407,52.4057315 46.1151868,51.5947202 C46.9812083,50.9246747 48.9610348,51.3677103 49.2948711,50.1655341 C48.4471588,49.1604659 46.4642807,50.2924644 45.6379291,50.8014059 Z M40.5504342,43.1770453 C39.3231127,43.3161806 37.6221952,42.5802289 37.0527815,43.4949814 C38.4522087,44.4469585 42.1530927,44.4908959 42.6175342,42.7004465 C41.8796765,42.5387325 41.4256102,43.0781862 40.5504342,43.1770453 Z M89.838592,41.9059118 C90.3811523,42.1951664 90.6020824,41.8851635 91.2691448,41.9059118 C91.9703841,42.8999956 91.2136071,45.3513367 92.7003078,45.5600395 C93.1604772,43.8110865 92.6447701,41.7100243 91.7470127,40.7946615 C90.6771497,40.7311963 90.0198523,41.080865 89.838592,41.9059118 Z M77.1192445,38.0937315 C73.397,38.8260216 69.6021291,39.8512278 65.9897394,40.4767256 C58.3157758,41.8052218 50.7199311,43.1074778 44.2073763,45.7187024 C46.1121353,45.9237436 47.9894307,45.2469854 49.9314183,44.9241675 C62.1301762,42.8957239 73.2773804,40.2814482 85.2277446,38.4122777 C86.813925,38.1639094 89.5261163,38.1846575 89.838592,36.0292836 C85.9216603,36.3752907 81.4865807,37.2351213 77.1192445,38.0937315 Z M97.4698342,35.394022 C97.4820403,36.7286208 96.0105971,36.5833831 95.7213129,37.617743 C98.6471108,44.8832814 100.785006,54.4305137 101.444745,64.7789934 C102.046505,74.2139413 101.298272,83.7263897 98.9016076,91.7803605 C90.4183808,94.9121212 81.4896321,96.5091238 72.507787,98.7694593 C63.6101637,101.008436 54.5807148,103.33895 44.2073763,103.6935 C43.7728398,101.148792 44.97758,98.7554239 45.1612816,96.2278024 C45.7850123,87.6679412 44.8768798,78.5118739 43.8894078,69.0671622 C43.4603641,64.9657274 42.9440468,60.8649028 41.9815973,56.6774238 C41.3304028,53.8477328 40.1409202,47.6293692 38.3246552,46.1946909 C36.8434472,45.0254677 32.3937202,44.8344621 29.8981867,44.6068418 C24.1820787,44.0838646 19.905678,43.0177723 14.1578342,43.8123071 C23.2946965,39.5979774 33.5636731,36.5144259 45.320571,34.9174232 C45.569575,35.6069963 43.9473867,37.1472465 44.3666656,38.5709407 C44.7865548,39.9964654 48.3891799,40.1825891 50.4080658,40.3180627 C56.7668241,40.7440115 64.933303,39.1415166 62.6507657,33.3289639 C70.9551734,32.6241346 79.3193908,32.5246652 87.4535236,33.4882369 C91.1879744,33.930052 94.9700287,33.6395769 97.4698342,35.394022" id="Shape" fill="#DDDDDD"></path>
            <path d="M89.8379816,36.0298938 C89.5255059,38.1852679 86.813925,38.1645196 85.2271343,38.4122777 C73.2773804,40.2820584 62.1295659,42.8963343 49.9308079,44.9247777 C47.9894307,45.2475957 46.1121353,45.9243538 44.2073763,45.7187024 C50.7193208,43.1074778 58.3151655,41.8052218 65.989129,40.4773358 C69.6015189,39.851838 73.3963897,38.8266319 77.1186342,38.0949519 C81.4859702,37.2363419 85.92105,36.3759009 89.8379816,36.0298938" id="Path" fill="#000000"></path>
            <g id="Clipped" transform="translate(0.000000, 36.585214)">
                <mask id="mask-4" fill="white">
                    <use xlink:href="#path-3"></use>
                </mask>
                <g id="Path"></g>
                <path d="M2.23310268,4.36872079 C3.06067502,3.71271086 4.26724615,3.43505082 5.09481849,2.78026145 C4.32583534,2.38299403 3.52145448,2.02234111 2.55107107,1.82706375 C2.76345689,2.89071517 1.91696509,3.72918743 2.23310268,4.36872079 Z M0.643260582,6.43255834 C0.499228662,6.15306769 0.287453262,5.94131376 0.007323649,5.79790691 C0.529133679,3.88418875 0.441860156,1.3614494 1.59716575,0.0793313505 C4.20743643,-0.0390554726 4.98069158,1.67633415 7.47988684,1.66840105 C9.70566587,3.30873089 6.79024331,4.32722435 4.93613942,5.16264528 C3.32615718,5.88822269 1.9816574,6.59488272 0.643260582,6.43255834" id="Shape" fill="#000000" mask="url(#mask-4)"></path>
            </g>
            <path d="M2.55107107,38.4116675 C3.52145448,38.607555 4.32644561,38.9675977 5.09481849,39.3648652 C4.26724615,40.0202647 3.06067502,40.2973146 2.23310268,40.9533245 C1.91696509,40.3144013 2.76345689,39.4747087 2.55107107,38.4116675" id="Path" fill="#FFF18D"></path>
            <g id="Clipped" transform="translate(113.183334, 39.131753)">
                <mask id="mask-6" fill="white">
                    <use xlink:href="#path-5"></use>
                </mask>
                <g id="Path"></g>
                <path d="M2.25324252,4.04529258 C2.83852417,5.31459544 4.29959223,5.70698093 5.43353714,6.4276764 C5.52569309,5.14372774 5.24007078,3.48142935 5.5922162,2.4568334 C4.37465967,2.88156166 3.30906866,3.45885029 2.25324252,4.04529258 Z M7.5006371,0.709711204 C6.82075843,2.95784184 8.4057181,8.31881565 6.38683219,8.81006023 C5.18758455,9.10175587 3.47140963,7.57004898 2.73050039,7.06293819 C1.91879604,6.50822847 0.126943249,5.19376765 0.0274636447,4.36261829 C-0.222150843,2.29145784 4.12077317,0.736561842 5.75089526,0.0744495727 C6.33861813,-0.164765197 7.06549033,0.310002813 7.5006371,0.709711204" id="Shape" fill="#000000" mask="url(#mask-6)"></path>
            </g>
            <path d="M91.7464025,40.7946615 C92.6447701,41.7106345 93.1604772,43.8110865 92.6996975,45.5600395 C91.2136071,45.3519471 91.9709944,42.9006058 91.2691448,41.906522 C90.6020824,41.8851635 90.380542,42.1951664 89.8379816,41.906522 C90.019242,41.080865 90.6765395,40.7318067 91.7464025,40.7946615" id="Path" fill="#8E8664"></path>
            <path d="M118.77555,41.5885861 C118.422794,42.6125717 118.709027,44.2754805 118.61626,45.5594291 C117.482926,44.8387337 116.021247,44.445738 115.436576,43.1770453 C116.493012,42.5899928 117.557383,42.0139246 118.77555,41.5885861" id="Path" fill="#FFF18D"></path>
            <path d="M42.6175342,42.7004465 C42.1530927,44.4915061 38.4522087,44.4469585 37.0527815,43.494371 C37.6221952,42.5802289 39.3231127,43.3161806 40.5504342,43.1770453 C41.4256102,43.0781862 41.8796765,42.5387325 42.6175342,42.7004465" id="Path" fill="#8E8664"></path>
            <path d="M38.4839445,98.2928605 C37.738153,98.1464025 36.7610561,97.5324992 36.0988762,97.8162618 C36.1055896,98.0347282 36.0238087,98.1653201 35.9395868,98.2928605 C36.6573045,98.9525318 37.7558518,99.2314123 39.1198815,99.2454479 C39.8168487,98.4118577 40.0841619,96.4633557 39.9144973,95.2746049 C38.3881268,95.2324981 38.9715775,97.296946 38.4839445,98.2928605 Z M31.0107711,49.0536735 C31.8969326,50.0703362 33.1645341,49.4485 34.0317762,50.3241968 C35.3268416,51.6319449 34.1770287,54.3823046 35.9395868,55.4062902 C36.2514523,51.4391085 35.1608388,48.0364005 31.0107711,49.0536735 Z M37.2114606,47.4658245 C40.2580985,53.5810572 41.3242998,61.6899497 42.2995657,70.1784124 C43.4963721,80.6001213 44.0627343,92.8281456 42.6175342,102.898965 C31.4154027,102.283231 22.2132377,99.669566 14.95245,95.1159419 C14.7095491,93.0289152 14.356183,91.0529523 14.3165131,88.762715 C18.3939548,89.9410918 21.4241145,91.0791928 23.8561763,87.9681802 C27.7230629,83.0221708 27.3690866,73.6616724 24.4921132,67.0021041 C23.1293041,63.846544 20.2083888,59.7902669 17.6554868,59.6956796 C15.0995333,59.6010921 13.3577255,61.9700507 10.9775396,62.5546622 C10.7193809,59.1226625 10.8011616,55.5783784 10.659571,52.2305922 C10.4960097,48.3433521 10.6083057,45.7058872 14.4758026,45.2414932 C21.8147091,44.3603041 30.5023878,46.9434576 37.2114606,47.4658245" id="Shape" fill="#C1BFB6"></path>
            <path d="M35.9395868,55.4075107 C34.1770287,54.3829148 35.3268416,51.6325551 34.0317762,50.3241968 C33.1645341,49.4485 31.8969326,50.0709466 31.0107711,49.0542837 C35.1608388,48.0370108 36.250842,51.4391085 35.9395868,55.4075107" id="Path" fill="#8E8664"></path>
            <path d="M49.2948711,50.1661443 C48.9610348,51.3677103 46.9812083,50.925285 46.1151868,51.5953304 C46.4441407,52.4057315 46.7907934,53.7738936 46.4331552,54.7722491 C45.4609408,54.1266132 45.4328669,52.1494299 45.6379291,50.8007957 C46.4642807,50.2924644 48.4465484,49.1604659 49.2948711,50.1661443" id="Path" fill="#8E8664"></path>
            <path d="M101.286066,50.3241968 C102.07702,50.6457942 102.70014,51.1352082 103.352555,51.5953304 C103.831034,56.4339374 107.283524,66.4132209 103.193876,69.0671622 C103.089514,62.2885968 102.529255,55.965882 101.286066,50.3241968" id="Path" fill="#C6CDE5"></path>
            <path d="M90.7924973,57.9485574 C87.9301711,60.7892328 87.8526624,68.2433359 90.9517866,69.5431508 C91.7158874,69.8647483 93.0609976,69.8769531 93.8128922,69.5431508 C96.3267346,68.43068 97.2684338,60.9381318 96.0398917,57.7898945 C94.0332119,56.0824382 92.3506036,56.4015945 90.7924973,57.9485574 Z M91.1104657,71.1322204 C85.5414408,69.6420099 86.248173,58.2512373 90.7924973,56.2014352 C83.6665867,56.2642901 83.3864572,72.1202018 91.1104657,71.1322204 Z M89.8379816,54.7716387 C92.7259407,54.2822249 96.2852341,55.3660143 97.3117655,56.9953598 C99.4197558,60.3461972 97.7725451,68.4636332 95.2446655,70.4963484 C94.7857168,70.8655447 93.9776742,70.8368633 93.3362447,71.2908832 C92.8437293,71.6393313 92.5837397,72.4045744 92.2236604,72.5614065 C90.4098366,73.3516696 87.4339939,72.383216 86.3409393,71.2908832 C83.0562826,68.0096133 83.5683278,59.0640793 86.6589076,56.0421621 C87.412023,55.3056003 88.7852071,54.9504397 89.8379816,54.7716387" id="Shape" fill="#000000"></path>
            <path d="M90.7924973,56.2020454 C86.248173,58.2512373 85.5408306,69.6420099 91.1098554,71.1316101 C83.385847,72.120812 83.6665867,56.2649003 90.7924973,56.2020454" id="Path" fill="#FFE000"></path>
            <path d="M96.0392815,57.7898945 C97.2684338,60.9393522 96.3261243,68.43068 93.8128922,69.543761 C93.0603871,69.8769531 91.7158874,69.8647483 90.9517866,69.543761 C87.8520522,68.2439461 87.9295608,60.7892328 90.7918869,57.9485574 C92.3506036,56.4022047 94.0326017,56.0830484 96.0392815,57.7898945" id="Path" fill="#FFF18D"></path>
            <path d="M61.2196027,64.6203305 C59.9873987,66.6530458 58.8699319,71.4745659 59.7884395,73.8325401 C60.2126008,74.9218217 62.0886757,76.3552796 63.2860922,76.5322496 C70.1752047,77.5519637 71.4306002,61.8290848 65.1945131,61.443412 C65.0498709,61.4348685 65.0602462,61.5984133 65.0352236,61.602685 C63.8024095,61.7967418 61.9025328,63.4926037 61.2196027,64.6203305 Z M60.4243764,61.1260863 C57.5046817,62.140308 54.6850768,69.0897411 56.1314974,73.3565515 C56.8840025,75.5753906 58.7234589,77.3280049 61.2196027,77.4854473 C60.6422549,76.4938045 59.1042886,75.8823422 58.5165658,74.6264646 C57.7250014,72.9367052 57.9050411,70.568357 58.1985974,68.5911737 C58.4805579,66.6847784 59.6285399,64.0625696 60.7423448,62.8732085 C61.4887467,62.0756225 62.7014208,61.9297746 62.6507657,60.9674234 C62.0325275,60.9765769 61.0597029,60.9051787 60.4243764,61.1260863 Z M61.2196027,59.6962898 C64.2436593,59.381405 67.6039936,60.1808217 69.0095238,61.602685 C72.8684766,65.5033504 70.2386763,75.9824218 65.8298396,77.8033833 C65.1676597,78.0767716 64.0465312,78.1731898 63.1280234,78.4386449 C60.6434756,79.1562892 58.7228486,78.782211 57.0854027,77.3267845 C52.5886822,73.3284805 54.5398244,64.1492239 58.3578867,60.8081504 C59.1817973,60.0868445 59.873882,59.8360351 61.2196027,59.6962898" id="Shape" fill="#000000"></path>
            <path d="M62.6507657,60.9668131 C62.7020312,61.9291644 61.489357,62.0750121 60.7429551,62.8725981 C59.6291501,64.0619593 58.4811682,66.6841682 58.1985974,68.5905635 C57.9056514,70.5677468 57.7256117,72.9367052 58.5165658,74.6264646 C59.1048989,75.881732 60.6428652,76.4938045 61.2196027,77.4854473 C58.7240691,77.3280049 56.8840025,75.5747804 56.1321078,73.3559413 C54.6850768,69.0885207 57.5052919,62.1396978 60.4249867,61.1260863 C61.0597029,60.9045685 62.0325275,60.9759667 62.6507657,60.9668131" id="Path" fill="#FFE000"></path>
            <path d="M16.7015816,65.8902437 C18.4903828,68.3922348 19.4149935,71.7571079 20.8351711,74.6258544 C20.5489386,70.4646159 19.4168244,67.1485622 16.8602605,65.2555923 C16.8102157,65.469787 16.6338378,65.5588824 16.7015816,65.8902437 Z M20.6758818,88.4453893 C18.3127844,88.1585756 16.3549289,87.4671717 14.1578342,87.0155928 C13.8172844,86.5420452 15.4089575,85.5827452 15.7476763,84.6325988 C17.6359571,79.332649 15.4144502,68.7022377 13.2033185,65.572918 C12.7748851,64.9657274 12.0266522,64.5580859 11.4547973,64.3017844 C13.3864098,63.6170931 15.1984026,61.4525657 17.3375184,61.4427884 C19.2972048,61.4348685 21.7469654,64.9675582 22.9022711,67.6379761 C25.6748824,74.0461248 26.3785632,84.7412218 20.6758818,88.4453893" id="Shape" fill="#C6CDE5"></path>
            <path d="M65.0358341,61.6020748 C65.0608565,61.5984133 65.0498709,61.4348685 65.1939029,61.443412 C71.4306002,61.8290848 70.175815,77.5525739 63.2867025,76.53286 C62.0886757,76.3552796 60.2126008,74.9218217 59.7884395,73.8325401 C58.8699319,71.4745659 59.9873987,66.6530458 61.2189922,64.6203305 C61.9031432,63.4926037 63.8017991,61.7973522 65.0358341,61.6020748" id="Path" fill="#FFF18D"></path>
            <path d="M16.8602605,65.2549819 C19.4168244,67.1485622 20.5489386,70.4646159 20.8351711,74.6258544 C19.4149935,71.7571079 18.4903828,68.3922348 16.7015816,65.8902437 C16.6338378,65.5582722 16.8102157,65.469787 16.8602605,65.2549819" id="Path" fill="#8896BA"></path>
            <path d="M8.91104988,65.572918 C12.0779179,65.3599435 12.6332945,68.1975678 13.5218973,71.2908832 C14.4922807,74.6716226 15.6933591,79.8269449 14.3165131,83.6800115 C13.9314113,84.7576983 12.5026895,86.1734592 11.6134764,86.221058 C8.48871945,86.3888745 6.93183385,79.5761355 6.68466058,76.3729766 C6.32336057,71.6869301 6.80550087,67.7575833 8.91104988,65.572918" id="Path" fill="#E4E8F4" fill-rule="nonzero"></path>
            <path d="M93.4955341,77.6447204 C95.2886074,78.4667161 97.7310444,77.5177901 97.9464817,75.7389353 C96.6642329,74.4793964 93.6786253,75.8231488 93.4955341,77.6447204 Z M98.105771,74.1498658 C102.634227,77.3524146 92.5605482,81.5252478 92.2236604,77.4854473 C92.008223,74.9114475 95.7139894,74.5764248 98.105771,74.1498658" id="Shape" fill="#FF9999"></path>
            <path d="M97.9477022,75.7383251 C97.7316547,77.5171799 95.2892178,78.4661059 93.4955341,77.6441102 C93.6792356,75.8231488 96.6654534,74.478176 97.9477022,75.7383251" id="Path" fill="#FF9999"></path>
            <path d="M82.6839972,80.3444299 C81.4029689,82.1257257 77.3102698,82.6462619 74.8934656,82.250215 C74.8525752,80.4011824 78.3990523,80.2895081 80.1402498,79.5505054 C80.7304139,79.299696 82.3617566,79.9190915 82.6839972,80.3444299" id="Path" fill="#000000"></path>
            <path d="M51.3619711,86.3803312 C54.2737318,86.7751577 59.2464894,86.5450964 59.9477288,83.6800115 C56.3853839,83.7782604 52.2932951,84.1816301 51.3619711,86.3803312 Z M61.0603132,83.0447497 C61.3764508,87.6044761 55.9014128,87.7320167 51.2026816,87.8095173 C46.6180774,84.4684437 57.2190594,81.2366033 61.0603132,83.0447497" id="Shape" fill="#FF9999"></path>
            <path d="M59.9477288,83.6800115 C59.2464894,86.5450964 54.2737318,86.7751577 51.3619711,86.3803312 C52.2932951,84.1816301 56.3853839,83.7782604 59.9477288,83.6800115" id="Path" fill="#FF9999"></path>
            <path d="M85.8630711,92.0989066 C85.9515652,91.7101827 86.4782576,91.7602226 86.340329,91.1450989 C85.8752772,91.0639366 85.4974989,91.874948 85.8630711,92.0989066 Z M86.8175867,89.8745754 C88.4806653,91.0547831 87.1611879,94.15176 84.7504867,93.0514941 C84.2646848,91.3977389 84.9561593,89.6976054 86.8175867,89.8745754" id="Shape" fill="#000000"></path>
            <path d="M86.340329,91.1450989 C86.4782576,91.7596124 85.9521756,91.7101827 85.8636814,92.0982964 C85.4974989,91.8743376 85.8752772,91.0639366 86.340329,91.1450989" id="Path" fill="#FFF18D"></path>
            <path d="M66.9436445,95.7518139 C66.9271664,95.4448622 66.3510394,95.9977413 66.1484183,95.5925408 C65.786508,96.2217001 67.1218533,96.2961495 66.9436445,95.7518139 Z M67.8969396,95.1165522 C67.9280651,95.7298452 67.9024323,96.2863856 67.7382605,96.7044012 C67.2640543,97.1498778 65.8280087,97.1498778 65.3531922,96.7044012 C65.132262,96.2009518 65.132262,95.3020657 65.3531922,94.7986162 C66.2588834,94.4281995 67.4025932,94.3824314 67.8969396,95.1165522" id="Shape" fill="#000000"></path>
            <path d="M39.9144973,95.2752151 C40.0841619,96.4633557 39.8168487,98.4118577 39.119271,99.2454479 C37.7558518,99.2320226 36.6573045,98.953142 35.9395868,98.2928605 C36.0238087,98.1653201 36.1055896,98.0353384 36.0982659,97.8162618 C36.7610561,97.5324992 37.738153,98.1464025 38.4833343,98.2928605 C38.9709673,97.2975562 38.3875166,95.2324981 39.9144973,95.2752151" id="Path" fill="#8E8664"></path>
            <path d="M66.1484183,95.5925408 C66.3510394,95.9977413 66.9271664,95.4448622 66.9436445,95.7518139 C67.1218533,96.2961495 65.786508,96.2217001 66.1484183,95.5925408" id="Path" fill="#FFF18D"></path>
            <path d="M78.7084765,98.9281222 C78.8439639,98.8988306 78.8586112,98.9903669 78.8677658,99.0873954 C79.2351688,103.128416 79.3126774,107.501409 79.3444132,111.793849 C79.4030024,119.676342 79.7923765,128.073879 77.9138605,134.507658 C74.5425407,136.738702 69.9652601,137.174414 65.5118712,138.001902 C63.3507844,138.403441 61.1506382,139.05579 58.9938236,139.430478 C55.5205831,140.036448 52.4531947,140.522811 49.1361921,141.17821 C49.8087471,129.972951 49.2521498,116.431687 48.5002551,105.122686 C49.7489374,104.622898 51.7183887,104.844416 53.1104923,104.488035 C52.7632293,112.286925 53.6316919,119.867348 54.0643974,127.995158 C54.2267384,131.034162 53.9032772,136.046687 56.1314974,136.889431 C57.4137462,137.374574 59.2660192,137.186009 60.7423448,137.048704 C63.1988187,136.820474 66.0294091,135.846528 68.6915554,135.142919 C71.4055777,134.425275 73.9035523,133.32684 75.8467605,132.601262 C75.881548,132.000785 76.212943,131.696274 76.6413765,131.489402 C76.1793763,120.83336 75.7991569,110.094936 75.2108237,99.5633838 C76.4869696,99.4620838 77.6318999,99.2289715 78.7084765,98.9281222" id="Path" fill="#DDDDDD"></path>
            <path d="M69.0101342,129.265681 C69.284771,131.921453 74.5877033,130.819356 72.985655,127.359896 C71.3414958,125.5786 68.8026309,127.256765 69.0101342,129.265681 Z M69.3287129,115.923965 C69.1053417,117.726009 70.7983251,118.875705 72.6670763,117.670477 C74.5217903,114.298281 69.7058809,112.872757 69.3287129,115.923965 Z M74.0982393,99.8813199 C75.4207683,109.861824 74.7329556,120.90903 75.5287921,131.330739 C72.0335806,132.704393 67.9207413,134.155548 63.7633501,135.301582 C61.6175208,135.892296 58.5537944,136.3811 55.9728183,135.460245 C55.0091483,125.357083 54.2834966,115.017146 53.9057185,104.328762 C60.8393832,103.048475 67.5612723,101.557654 74.0982393,99.8813199" id="Shape" fill="#C6CDE5"></path>
            <path d="M110.189182,100.99318 C110.231903,102.889201 110.173924,104.683922 110.030503,106.39321 C106.81359,106.086258 105.336654,111.613828 109.553855,111.31725 C109.517847,112.817835 109.44278,114.277533 109.076597,115.447367 C105.817573,116.659917 103.276267,114.631473 102.39865,112.429111 C102.882621,110.113243 101.804824,107.442215 102.39865,105.281349 C102.86065,103.601964 106.949688,100.783257 110.189182,100.99318" id="Path" fill="#E4E8F4"></path>
            <path d="M80.7755763,102.422367 C82.8542721,102.463863 85.1355887,102.302149 86.9762658,102.58164 C86.1962972,104.160335 84.4862251,109.155774 87.6122027,108.776204 C87.9143031,108.129958 87.3552647,107.885251 87.2942342,107.187744 C87.1605777,105.655427 87.9753337,104.035846 88.2481395,102.740302 C90.8474246,102.897135 93.2086911,103.291351 95.4033445,103.852163 C95.2580923,105.58708 93.7665091,108.067713 94.9260868,109.570128 C96.3889857,108.649884 96.0771203,105.955666 96.5159289,104.010826 C98.4530342,104.246379 99.6528919,105.219105 101.126776,105.916611 C101.256161,107.616744 100.736792,109.033115 101.126776,110.523326 C97.1659027,111.501543 91.7702044,112.835532 86.8175867,112.429111 C84.762693,112.260684 83.0672682,111.192151 81.2522239,111.475913 C80.9983374,108.552855 80.927542,105.447945 80.7755763,102.422367" id="Path" fill="#8896BA"></path>
            <path d="M24.3328239,128.947745 C23.0847519,126.945542 20.3267877,124.791388 20.8351711,121.959257 C21.1897578,119.986345 25.0285704,118.440602 26.3999237,117.194489 C27.0883467,119.312638 27.7065848,121.501575 29.5802183,122.435855 C30.2442291,120.161484 27.7499163,118.350287 27.1951499,116.241291 C28.9149868,114.517968 30.7220973,112.88191 32.2826448,110.999315 C32.9368908,112.183794 33.6741381,113.468963 34.3497448,114.812105 C34.9582179,116.020994 35.2114941,117.918235 36.7348131,118.305739 C37.1443272,115.183742 34.6219403,112.271669 33.2365501,109.888064 C34.2581991,107.625898 36.8928817,106.97477 37.5294289,104.328762 C38.7750597,104.068189 40.2172081,105.078749 40.7091133,105.757948 C42.8848473,108.761558 42.7994047,115.588333 40.5504342,118.147076 C38.5608429,120.410463 35.5434995,122.297941 32.6006132,124.34164 C29.6973967,126.357879 27.8811317,128.256951 24.3328239,128.947745" id="Path" fill="#8896BA"></path>
            <path d="M41.6630185,104.80475 C43.4103191,104.385514 44.9861243,105.508359 47.2283814,105.122686 C47.3980461,117.188386 48.1011164,129.551884 48.3409658,141.019548 C45.0068746,140.485586 41.8308521,139.793572 38.4833343,139.271815 C37.7558518,134.121985 38.1006736,127.90057 37.3707499,122.753791 C39.1937282,120.805289 42.8488393,119.013619 43.7301184,115.764692 C44.7963197,111.834125 43.3193838,107.347628 41.6630185,104.80475" id="Path" fill="#C1BFB6"></path>
            <path d="M70.5993661,116.71789 C71.0735723,116.928423 71.406188,116.880825 71.7125607,116.559227 C71.8352318,115.801307 71.4885791,115.512052 71.0766238,115.288093 C70.8270095,115.673766 70.4840185,115.966682 70.5993661,116.71789 Z M72.6664659,117.670477 C70.7977149,118.875705 69.1053417,117.726009 69.3281026,115.923965 C69.7052706,112.872757 74.5217903,114.298281 72.6664659,117.670477" id="Shape" fill="#000000"></path>
            <path d="M71.0772342,115.288093 C71.4885791,115.512052 71.8352318,115.801307 71.713171,116.559227 C71.4067983,116.880825 71.0735723,116.927813 70.5999763,116.71789 C70.4840185,115.966682 70.8270095,115.673766 71.0772342,115.288093" id="Path" fill="#FFF18D"></path>
            <path d="M19.4046184,122.912454 C20.0002751,125.969765 21.5754699,128.048859 23.2202395,130.060216 C23.0456924,132.903332 22.3816816,135.258255 19.8812658,135.778181 C18.5733841,135.178924 18.0711038,133.774147 17.01955,132.919198 C17.8214895,131.859819 19.3863092,132.099034 19.5632974,130.694867 C19.8177942,128.679239 16.9847627,126.886348 14.4758026,127.995158 C13.7294007,126.675815 12.776716,125.562734 12.2494133,124.023704 C13.9338526,123.041215 16.8260835,122.479793 19.4046184,122.912454" id="Path" fill="#E4E8F4"></path>
            <path d="M70.5999763,129.424965 C71.3976438,129.426785 71.9609545,129.194893 71.8724603,128.312483 C71.2310307,127.26958 69.9738044,128.402189 70.5999763,129.424965 Z M72.985655,127.359286 C74.5877033,130.819356 69.284771,131.921453 69.0101342,129.265681 C68.8026309,127.256765 71.3421061,125.5786 72.985655,127.359286" id="Shape" fill="#000000"></path>
            <path d="M71.8724603,128.312483 C71.9603441,129.194893 71.3976438,129.426785 70.5999763,129.424965 C69.9738044,128.402189 71.2310307,127.26958 71.8724603,128.312483" id="Path" fill="#FFF18D"></path>
            <path d="M73.4616921,138.160565 C74.2111456,139.353588 73.4275151,141.710341 73.4616921,143.243268 C72.762894,143.067519 70.9240478,143.003444 70.9179447,144.037193 C70.9612764,144.947063 72.527927,144.335601 73.3030131,144.513792 C73.3316974,145.866088 73.0924582,146.950487 72.507787,147.69071 C71.2890096,147.69071 70.0702324,147.69071 68.8514552,147.69071 C68.5371485,145.939317 68.2594601,144.151918 68.0562289,142.290071 C69.08215,142.308988 70.169712,142.38954 70.5999763,141.814082 C70.6018073,140.867597 68.6567681,141.066536 68.214908,141.496146 C67.9433227,140.920078 67.8804613,140.136528 67.8969396,139.271815 C69.6393576,138.789114 71.6643467,138.588344 73.4616921,138.160565" id="Path" fill="#8896BA"></path>
            <path d="M44.6840238,142.131408 C46.767602,142.379776 48.947608,142.531116 51.3619711,142.449344 C50.944523,143.938334 50.994568,145.893548 50.5667449,147.372775 C49.5688976,147.48811 48.0516818,147.08413 48.0229974,148.167309 C48.0712115,149.080841 49.6824143,148.514537 50.2493867,148.484635 C50.2646443,149.877207 49.601854,150.591189 49.4541605,151.820216 C48.4447174,151.769566 47.1996971,151.95447 46.4331552,151.661554 C45.7752475,149.830218 45.3822116,147.734648 45.0019921,145.625042 C46.24213,145.540829 47.9814968,145.954573 48.3409658,144.990391 C48.1334624,143.690576 46.0279133,144.512571 44.8433131,144.513792 C44.9659843,143.543507 44.6345892,143.027243 44.6840238,142.131408" id="Path" fill="#8896BA"></path>
        </g>
    </g>
</svg>