<svg viewBox="0 0 5570 1080" fill="none" xmlns="http://www.w3.org/2000/svg">
<g clip-path="url(#clip0)">
<path d="M3462.1 1080H3462.11H3129.35L3082.54 1014.26L2976.76 1080H2623.72L2589.97 1033.18L2569 1080H1565.37L1602.59 992.45L1458.54 992.25L1421.43 1080H1026.07H1026.1H707.15L649.01 993.48L517.85 1080H123.3L0 894.4L309.39 148.46L508.04 0L905.71 0.58L983.79 118.25L1527.34 119.08L1770.35 119.46L1769.93 384.47L1982.42 119.79L2233.14 120.21L2281.71 2.76L2816.5 3.58L2916.36 153.91L2959.91 121.41L3316.04 121.88L3365.8 196.75L3465.66 122.16L3821.81 122.75L3845.57 158.55L3860.39 122.78L5569.45 125.59L5450.05 414.4L5315.26 414.19L5036.6 1080H3462.1Z" fill="url(#paint0_linear)"/>
<path d="M3886.08 161.3L3853.45 240.03L3801.15 161.19L3478.42 160.66L3356.26 251.9L3295.39 160.34L2972.66 159.91L2906.78 209.07L2795.84 42.03L2307.42 41.28L2258.85 158.73L2000.84 158.3L1731.28 494.08L1731.81 157.88L1527.29 157.55L963.13 156.7L885.04 39.03L520.81 38.5L340.89 172.96L43.4 890.19L143.95 1041.55L506.26 1042.09L659.76 940.15L727.8 1042.52L1048.6 1042.94L1097.05 1010.85L1083.68 1043.05L1395.71 1043.48L1432.83 953.73L1660.14 954.05L1622.92 1043.91L2543.29 1045.4L2582.01 951.7L2644.37 1045.51L2965.18 1046.05L3093.33 960.9L3150.02 1046.37L3470.93 1046.79L3538.32 1002.08L3519.71 1046.9H5010.9L5289.55 375.67L5424.33 375.88L5511.94 163.97L3886.08 161.3Z" fill="white"/>
<path fill-rule="evenodd" clip-rule="evenodd" d="M427.32 878H323.66L601.78 204.09H705.55L641.36 359.41H848.67L916.38 195.96L852.2 99.68H644.79H541.13L390.84 211.9L115.29 877.57L112.61 883.99L176.79 981.33H280.45H487.86L630.99 885.91L698.91 722.57H491.5L427.32 878ZM1256.12 217.78L977.46 891.69H887.61L1166.26 217.78H986.55L705.22 898.43L760.63 981.86H850.49H1030.2L1154.28 899.39L1435.94 217.78H1256.12ZM1669.88 667.91L2030.15 219.17H2209.86L1894.09 983.15H1714.38L1838.25 681.81L1669.56 892.97H1489.74V655.5L1354.85 982.29H1175.04L1490.81 218.63H1670.63L1669.88 667.91ZM2827.29 198.74L2763.11 102.47H2348.28L1983.83 984.22H2191.24L2255.42 828.79H2358.97L2294.79 984.22H2502.2L2549.16 870.51L2502.52 776.8L2608.42 727.27L2827.29 198.74ZM2401.87 724.6H2298.22L2512.8 206.44H2615.81L2401.87 724.6ZM2994.09 220.99H3262.17C3262.74 220.99 3263.28 221.28 3263.61 221.76L3318.01 303.67C3318.33 304.15 3318.39 304.75 3318.17 305.28L3071.62 901.59C3071.49 901.9 3071.26 902.17 3070.98 902.36L2947.76 984.15C2947.48 984.34 2947.15 984.44 2946.81 984.44H2678.68C2678.1 984.44 2677.57 984.15 2677.25 983.67L2622.75 901.76C2622.43 901.28 2622.37 900.68 2622.59 900.15L2862.63 318.56C2862.75 318.28 2862.94 318.03 2863.19 317.84L2993.07 221.33C2993.36 221.11 2993.72 220.99 2994.09 220.99ZM2806.75 894.79H2892.89C2893.59 894.79 2894.21 894.37 2894.47 893.73L3134.59 313.32C3135.05 312.19 3134.22 310.95 3133 310.95H3047.4C3046.7 310.95 3046.08 311.37 3045.81 312.01L2805.16 892.42C2804.7 893.55 2805.53 894.79 2806.75 894.79ZM3455.52 760.97L3399.79 895.75H3309.94L3551.37 311.8H3641.22L3585.49 446.48H3765.31L3823.72 305.17L3768.3 221.84H3588.49H3498.63L3368.45 319.51L3129.05 895.75L3126.81 901.32L3182.86 985.71H3452.53L3576.51 903.24L3635.23 760.97H3455.52ZM4376.32 222.91L4152.65 763.97L4060.76 806.75L4101.19 888.05L4060.44 986.57H3880.73L3936.46 851.9H3846.61L3790.88 986.68H3611.06L3926.94 222.49H4106.65L3883.73 761.61H3973.58L4196.51 222.91H4376.32ZM4825.27 447.98L4918.12 223.34H4915.56H4466.18L4150.29 987.75H4599.68L4635.83 897.89H4367.23L4385.84 852.97H4474.09L4510.25 762.58H4422.96L4608.77 313.3H4701.3L4645.56 447.98H4825.27ZM4933.66 313.94L4971.21 224.2H5420.59L5383.47 313.94H5248.69L4970.03 987.85H4790.32L5068.44 313.94H4933.66Z" fill="url(#paint1_linear)"/>
</g>
<defs>
<linearGradient id="paint0_linear" x1="2248.41" y1="528" x2="2328.38" y2="-506.539" gradientUnits="userSpaceOnUse">
<stop stop-color="#F7316E"/>
<stop offset="1" stop-color="#FA7CB8"/>
</linearGradient>
<linearGradient id="paint1_linear" x1="2255.46" y1="533.896" x2="2312.3" y2="-318.18" gradientUnits="userSpaceOnUse">
<stop stop-color="#F7316E"/>
<stop offset="1" stop-color="#FA7CB8"/>
</linearGradient>
<clipPath id="clip0">
<rect width="5569.45" height="1080" fill="white"/>
</clipPath>
</defs>
</svg>
