<svg width="20" height="20" viewBox="0 0 20 20" fill="none" xmlns="http://www.w3.org/2000/svg">
<path d="M8.54336 2.00287C8.31271 1.98853 8.07458 2.03802 7.86016 2.16004C7.28836 2.48602 7.09702 3.20113 7.43242 3.75687L8.51875 5.5587L4.99961 11.3959H2.2C1.5376 11.3959 1 11.9184 1 12.5622C1 13.206 1.5376 13.7285 2.2 13.7285H11.4473C11.5415 13.2835 11.4839 12.801 11.2199 12.3549L11.2176 12.3526C10.9854 11.9596 10.6633 11.6385 10.2883 11.3959H7.78164L12.3871 3.75573C12.7219 3.19999 12.53 2.48544 11.9582 2.16004C11.3858 1.83465 10.6512 2.02116 10.3164 2.5769L9.90977 3.25117L9.50312 2.5769C9.2935 2.22957 8.92777 2.02677 8.54336 2.00287ZM11.9863 6.69652L11.4906 7.49721C10.9434 8.38126 10.9258 9.47549 11.4262 10.3788L15.2043 16.6453C15.4275 17.0162 15.828 17.2217 16.2402 17.2217C16.446 17.2217 16.6553 17.1707 16.8461 17.0622C17.4179 16.7368 17.6092 16.0223 17.2738 15.4665L16.2262 13.7285H17.8C18.4624 13.7285 19 13.206 19 12.5622C19 11.9184 18.4624 11.3959 17.8 11.3959H14.8199L11.9863 6.69652ZM3.775 14.897C3.4408 14.8877 3.11603 14.9381 2.80703 15.0326L2.53984 15.4745C2.20444 16.0297 2.39695 16.7448 2.96875 17.0702C3.15955 17.1792 3.36764 17.2308 3.57344 17.2308C3.98564 17.2308 4.38675 17.0236 4.61055 16.6533L5.25625 15.5827C4.90525 15.1844 4.39232 14.9145 3.77852 14.897H3.775Z" fill="black"/>
</svg>
