<svg width="24" height="24" viewBox="0 0 24 24" fill="none" xmlns="http://www.w3.org/2000/svg">
<g clip-path="url(#clip0)">
<path fill-rule="evenodd" clip-rule="evenodd" d="M5.27596 16.9618C4.76828 17.4695 4.76828 18.2926 5.27596 18.8003C5.78364 19.3079 6.60676 19.3079 7.11444 18.8003L12.1 13.8147L17.0855 18.8003C17.5932 19.308 18.4163 19.308 18.924 18.8003C19.4317 18.2926 19.4317 17.4695 18.924 16.9618L13.9384 11.9763L18.924 6.99072C19.4317 6.48304 19.4317 5.65992 18.924 5.15224C18.4163 4.64456 17.5932 4.64456 17.0855 5.15224L12.1 10.1378L7.11444 5.15225C6.60676 4.64456 5.78365 4.64456 5.27596 5.15225C4.76828 5.65993 4.76828 6.48304 5.27596 6.99072L10.2615 11.9763L5.27596 16.9618Z" fill="black"/>
</g>
<defs>
<clipPath id="clip0">
<rect width="24" height="24" fill="white" transform="translate(0 24) rotate(-90)"/>
</clipPath>
</defs>
</svg>
