
<svg width="24px" height="24px" viewBox="0 0 24 24" version="1.1" xmlns="http://www.w3.org/2000/svg" xmlns:xlink="http://www.w3.org/1999/xlink">
    <g id="Icons" stroke="none" stroke-width="1" fill="none" fill-rule="evenodd">
        <g id="icon">
            <rect id="bg" fill="#BE185D" x="0" y="0" width="24" height="24" rx="7"></rect>
            <path d="M7.204125,18.75 L7.204125,12.486 C7.494125,11.7465 7.86025,11.23175 8.3025,10.94175 C8.74475,10.65175 9.168875,10.50675 9.574875,10.50675 C9.806875,10.50675 10.009875,10.52125 10.183875,10.55025 C10.357875,10.57925 10.546375,10.62275 10.749375,10.68075 L10.749375,10.68075 L11.271375,7.9185 C11.111875,7.846 10.93425,7.791625 10.7385,7.755375 C10.54275,7.719125 10.292625,7.701 9.988125,7.701 C9.437125,7.701 8.886125,7.875 8.335125,8.223 C7.784125,8.571 7.312875,9.11475 6.921375,9.85425 L6.921375,9.85425 L6.834375,9.85425 L6.616875,7.962 L4.006875,7.962 L4.006875,18.75 L7.204125,18.75 Z M17.731125,19.011 C18.253125,19.011 18.709875,18.9675 19.101375,18.8805 C19.492875,18.7935 19.833625,18.7065 20.123625,18.6195 L20.123625,18.6195 L19.623375,16.29225 C19.478375,16.35025 19.31525,16.401 19.134,16.4445 C18.95275,16.488 18.775125,16.50975 18.601125,16.50975 C18.180625,16.50975 17.8435,16.375625 17.58975,16.107375 C17.336,15.839125 17.209125,15.4005 17.209125,14.7915 L17.209125,14.7915 L17.209125,10.46325 L19.797375,10.46325 L19.797375,7.962 L17.209125,7.962 L17.209125,5.091 L14.555625,5.091 L14.185875,7.962 L12.532875,8.0925 L12.532875,10.46325 L14.011875,10.46325 L14.011875,14.835 C14.011875,15.4585 14.08075,16.027625 14.2185,16.542375 C14.35625,17.057125 14.57375,17.49575 14.871,17.85825 C15.16825,18.22075 15.5525,18.5035 16.02375,18.7065 C16.495,18.9095 17.064125,19.011 17.731125,19.011 Z" id="rt" fill="#FFFFFF" fill-rule="nonzero"></path>
        </g>
    </g>
</svg>