<?xml version="1.0" encoding="UTF-8"?>
<svg width="260px" height="240px" viewBox="0 0 260 240" version="1.1" xmlns="http://www.w3.org/2000/svg" xmlns:xlink="http://www.w3.org/1999/xlink">
    <title>bookmark-projects</title>
    <g id="bookmark-projects" stroke="none" stroke-width="1" fill="none" fill-rule="evenodd">
        <rect id="Rectangle" fill="#F8F5FF" x="0" y="0" width="260" height="240"></rect>
        <g id="Browser">
            <rect id="Rectangle" fill="#7534FF" fill-rule="nonzero" x="0" y="0" width="260" height="19"></rect>
            <line x1="0" y1="18.6056" x2="260" y2="18.6056" id="Path" stroke="#EAEBEB" stroke-width="0.788703"></line>
            <circle id="Oval" fill="#FFFFFF" fill-rule="nonzero" cx="12.4644" cy="9" r="3"></circle>
            <circle id="Oval" fill="#FFFFFF" fill-rule="nonzero" cx="25.0835" cy="9" r="3"></circle>
            <circle id="Oval" fill="#FFFFFF" fill-rule="nonzero" cx="37.7031" cy="9" r="3"></circle>
        </g>
        <g id="Card" transform="translate(30.394400, 41.000000)">
            <rect id="Rectangle" stroke="#EAEBEB" stroke-width="0.788703" fill="#FFFFFF" x="0" y="20.3944" width="199.211" height="146" rx="3.60565"></rect>
            <rect id="Rectangle" fill="#CACFD7" fill-rule="nonzero" x="65.3165" y="38.897" width="68.3222" height="4" rx="2"></rect>
            <rect id="Rectangle-Copy-5" fill="#CACFD7" fill-rule="nonzero" x="54.3165" y="46.897" width="90" height="4" rx="2"></rect>
            <rect id="Rectangle" fill="#CACFD7" fill-rule="nonzero" x="36.611" y="88.897" width="126" height="8" rx="2"></rect>
            <rect id="Rectangle-Copy" fill="#CACFD7" fill-rule="nonzero" x="36.611" y="102.897" width="126" height="8" rx="2"></rect>
            <rect id="Rectangle-Copy-2" fill="#CACFD7" fill-rule="nonzero" x="36.611" y="116.897" width="126" height="8" rx="2"></rect>
            <rect id="Rectangle-Copy-3" fill="#CACFD7" fill-rule="nonzero" x="36.611" y="131.897" width="126" height="8" rx="2"></rect>
            <rect id="Rectangle-Copy-4" fill="#CACFD7" fill-rule="nonzero" x="36.611" y="145.897" width="126" height="8" rx="2"></rect>
            <circle id="Oval" fill="#CACFD7" cx="99.6056" cy="16" r="16"></circle>
        </g>
        <g id="Button" transform="translate(106.199800, 101.000000)" fill-rule="nonzero">
            <rect id="Rectangle" fill="#7534FF" x="0" y="0" width="48" height="19.2" rx="3.2"></rect>
            <path d="M8.90127422,12 C9.54613099,11.9954427 9.95286927,11.9840495 10.1214891,11.9658203 C10.3903693,11.9361979 10.6165249,11.857015 10.7999559,11.7282715 C10.9833868,11.599528 11.1280809,11.4274902 11.2340379,11.2121582 C11.3399949,10.9968262 11.3929734,10.7752279 11.3929734,10.5473633 C11.3929734,10.2579753 11.3109422,10.0061849 11.1468797,9.79199219 C10.9828172,9.57779948 10.7481167,9.42626953 10.4427781,9.33740234 C10.6592495,9.23942057 10.8307176,9.09244792 10.9571824,8.89648438 C11.0836473,8.70052083 11.1468797,8.4851888 11.1468797,8.25048828 C11.1468797,8.03401693 11.0956102,7.83862305 10.9930711,7.66430664 C10.890532,7.48999023 10.7623582,7.35042318 10.6085496,7.24560547 C10.454741,7.14078776 10.2804246,7.07185872 10.0856004,7.03881836 C9.89077617,7.00577799 9.59512188,6.98925781 9.1986375,6.98925781 L9.1986375,6.98925781 L7.19570781,6.98925781 L7.19570781,12 L8.90127422,12 Z M9.03031998,8.98158482 L8.20742656,8.98193359 L8.20742656,7.82324219 L8.95825817,7.82350922 C9.33384309,7.82475535 9.56549948,7.83036296 9.65322734,7.84033203 C9.82184714,7.86083984 9.94888164,7.91951497 10.0343309,8.01635742 C10.1197801,8.11319987 10.1625047,8.23909505 10.1625047,8.39404297 C10.1625047,8.55582682 10.1129441,8.6862793 10.013823,8.78540039 C9.91470195,8.88452148 9.77855286,8.94433594 9.60537578,8.96484375 C9.50967266,8.97623698 9.26471823,8.98193359 8.8705125,8.98193359 L9.03031998,8.98158482 Z M9.29203873,11.1551339 L8.20742656,11.1557617 L8.20742656,9.81591797 L9.02432109,9.81591797 C9.48460755,9.81591797 9.78367982,9.83984375 9.92153789,9.88769531 C10.059396,9.93554688 10.1647833,10.0118815 10.2377,10.1166992 C10.3106167,10.2215169 10.347075,10.3491211 10.347075,10.4995117 C10.347075,10.6772461 10.2997931,10.8190918 10.2052293,10.9250488 C10.1106655,11.0310059 9.98818828,11.0976562 9.83779766,11.125 C9.73981589,11.1455078 9.50853333,11.1557617 9.14395,11.1557617 L9.29203873,11.1551339 Z M13.8949266,12.0820312 C14.432687,12.0820312 14.8787319,11.9014486 15.2330613,11.5402832 C15.5873908,11.1791178 15.7645555,10.7239583 15.7645555,10.1748047 C15.7645555,9.63020833 15.5890997,9.17960612 15.2381883,8.82299805 C14.8872768,8.46638997 14.4372443,8.28808594 13.8880906,8.28808594 C13.5326219,8.28808594 13.2107632,8.36669922 12.9225145,8.52392578 C12.6342658,8.68115234 12.4115281,8.90901693 12.2543016,9.20751953 C12.097075,9.50602214 12.0184617,9.81477865 12.0184617,10.1337891 C12.0184617,10.5507812 12.097075,10.904541 12.2543016,11.1950684 C12.4115281,11.4855957 12.6411017,11.7060547 12.9430223,11.8564453 C13.2449428,12.0068359 13.5622443,12.0820312 13.8949266,12.0820312 Z M13.8915086,11.2993164 C13.6408576,11.2993164 13.4300828,11.2036133 13.2591844,11.012207 C13.0882859,10.8208008 13.0028367,10.5450846 13.0028367,10.1850586 C13.0028367,9.82503255 13.0882859,9.54931641 13.2591844,9.35791016 C13.4300828,9.16650391 13.6408576,9.07080078 13.8915086,9.07080078 C14.1421596,9.07080078 14.3523647,9.16650391 14.5221238,9.35791016 C14.6918829,9.54931641 14.7767625,9.82275391 14.7767625,10.1782227 C14.7767625,10.542806 14.6918829,10.8208008 14.5221238,11.012207 C14.3523647,11.2036133 14.1421596,11.2993164 13.8915086,11.2993164 Z M18.1708055,12.0820312 C18.7085659,12.0820312 19.1546108,11.9014486 19.5089402,11.5402832 C19.8632697,11.1791178 20.0404344,10.7239583 20.0404344,10.1748047 C20.0404344,9.63020833 19.8649786,9.17960612 19.5140672,8.82299805 C19.1631557,8.46638997 18.7131232,8.28808594 18.1639695,8.28808594 C17.8085008,8.28808594 17.4866421,8.36669922 17.1983934,8.52392578 C16.9101447,8.68115234 16.687407,8.90901693 16.5301805,9.20751953 C16.3729539,9.50602214 16.2943406,9.81477865 16.2943406,10.1337891 C16.2943406,10.5507812 16.3729539,10.904541 16.5301805,11.1950684 C16.687407,11.4855957 16.9169806,11.7060547 17.2189012,11.8564453 C17.5208217,12.0068359 17.8381232,12.0820312 18.1708055,12.0820312 Z M18.1673875,11.2993164 C17.9167365,11.2993164 17.7059617,11.2036133 17.5350633,11.012207 C17.3641648,10.8208008 17.2787156,10.5450846 17.2787156,10.1850586 C17.2787156,9.82503255 17.3641648,9.54931641 17.5350633,9.35791016 C17.7059617,9.16650391 17.9167365,9.07080078 18.1673875,9.07080078 C18.4180385,9.07080078 18.6282436,9.16650391 18.7980027,9.35791016 C18.9677618,9.54931641 19.0526414,9.82275391 19.0526414,10.1782227 C19.0526414,10.542806 18.9677618,10.8208008 18.7980027,11.012207 C18.6282436,11.2036133 18.4180385,11.2993164 18.1673875,11.2993164 Z M21.718657,12 L21.718657,10.8378906 L22.1664109,10.3696289 L23.0790086,12 L24.1146531,12 L22.7850633,9.69628906 L24.0257859,8.37011719 L22.8431688,8.37011719 L21.718657,9.6484375 L21.718657,6.98925781 L20.7582078,6.98925781 L20.7582078,12 L21.718657,12 Z M25.5741258,12 L25.5741258,10.2363281 C25.5741258,9.88769531 25.5997605,9.63818359 25.6510301,9.48779297 C25.7022996,9.33740234 25.7871792,9.22233073 25.9056688,9.14257812 C26.0241583,9.06282552 26.1574591,9.02294922 26.3055711,9.02294922 C26.428618,9.02294922 26.5260301,9.04801432 26.5978074,9.09814453 C26.6695848,9.14827474 26.7225633,9.22460938 26.756743,9.32714844 C26.7909227,9.4296875 26.8080125,9.65755208 26.8080125,10.0107422 L26.8080125,10.0107422 L26.8080125,12 L27.7684617,12 L27.7684617,10.2568359 C27.7684617,9.91503906 27.7946661,9.66495768 27.847075,9.5065918 C27.8994839,9.34822591 27.9849331,9.22802734 28.1034227,9.14599609 C28.2219122,9.06396484 28.3483771,9.02294922 28.4828172,9.02294922 C28.6673875,9.02294922 28.8041063,9.09130859 28.8929734,9.22802734 C28.9590542,9.33284505 28.9920945,9.56526693 28.9920945,9.92529297 L28.9920945,9.92529297 L28.9920945,12 L29.9525438,12 L29.9525438,9.67919922 C29.9525438,9.33284505 29.9195034,9.08219401 29.8534227,8.92724609 C29.7622768,8.71761068 29.6244188,8.55867513 29.4398484,8.45043945 C29.2552781,8.34220378 29.0296922,8.28808594 28.7630906,8.28808594 C28.5534552,8.28808594 28.3563523,8.3359375 28.171782,8.43164062 C27.9872117,8.52734375 27.815174,8.67203776 27.6556688,8.86572266 C27.5462938,8.67203776 27.406157,8.52734375 27.2352586,8.43164062 C27.0643602,8.3359375 26.8627,8.28808594 26.6302781,8.28808594 C26.1927781,8.28808594 25.8156622,8.48063151 25.4989305,8.86572266 L25.4989305,8.86572266 L25.4989305,8.37011719 L24.6136766,8.37011719 L24.6136766,12 L25.5741258,12 Z M31.8631883,12.0820312 C32.0751023,12.0820312 32.2744839,12.0421549 32.4613328,11.9624023 C32.6481818,11.8826497 32.8236375,11.7630208 32.9877,11.6035156 C32.9945359,11.6217448 33.0059292,11.6593424 33.0218797,11.7163086 C33.058338,11.8416341 33.0890997,11.9361979 33.1141648,12 L33.1141648,12 L34.0643602,12 C33.9800503,11.8268229 33.9225145,11.6644694 33.8917527,11.5129395 C33.860991,11.3614095 33.8456102,11.1261393 33.8456102,10.8071289 L33.8456102,10.8071289 L33.8558641,9.68603516 C33.8558641,9.26904297 33.8131395,8.98250326 33.7276902,8.82641602 C33.642241,8.67032878 33.4946987,8.54158529 33.2850633,8.44018555 C33.0754279,8.33878581 32.7564174,8.28808594 32.328032,8.28808594 C31.8563523,8.28808594 31.5008836,8.37239583 31.2616258,8.54101562 C31.022368,8.70963542 30.8537482,8.96940104 30.7557664,9.3203125 L30.7557664,9.3203125 L31.6273484,9.47753906 C31.6865932,9.30891927 31.7640672,9.19099935 31.8597703,9.1237793 C31.9554734,9.05655924 32.0887742,9.02294922 32.2596727,9.02294922 C32.5126023,9.02294922 32.6846401,9.06225586 32.7757859,9.14086914 C32.8669318,9.21948242 32.9125047,9.35107422 32.9125047,9.53564453 L32.9125047,9.53564453 L32.9125047,9.63134766 C32.7393276,9.70426432 32.4282924,9.7828776 31.9793992,9.8671875 C31.6467169,9.93098958 31.3920783,10.0056152 31.2154832,10.0910645 C31.0388882,10.1765137 30.9015997,10.2995605 30.803618,10.4602051 C30.7056362,10.6208496 30.6566453,10.8037109 30.6566453,11.0087891 C30.6566453,11.3186849 30.7643113,11.5750326 30.9796434,11.777832 C31.1949754,11.9806315 31.4894904,12.0820312 31.8631883,12.0820312 Z M32.1502977,11.4052734 C31.9953497,11.4052734 31.8677456,11.3562826 31.7674852,11.2583008 C31.6672247,11.160319 31.6170945,11.0441081 31.6170945,10.909668 C31.6170945,10.7729492 31.6797573,10.6601562 31.8050828,10.5712891 C31.8871141,10.5166016 32.0614305,10.4607747 32.328032,10.4038086 C32.5946336,10.3468424 32.7894578,10.2978516 32.9125047,10.2568359 L32.9125047,10.2568359 L32.9125047,10.4482422 C32.9125047,10.6783854 32.8999721,10.8344727 32.874907,10.9165039 C32.8384487,11.0418294 32.7621141,11.1477865 32.6459031,11.234375 C32.4886766,11.3483073 32.3234747,11.4052734 32.1502977,11.4052734 Z M35.722075,12 L35.722075,10.8789062 C35.722075,10.2613932 35.7488491,9.85579427 35.8023973,9.66210938 C35.8559454,9.46842448 35.9294318,9.33455404 36.0228563,9.26049805 C36.1162807,9.18644206 36.230213,9.14941406 36.3646531,9.14941406 C36.5036505,9.14941406 36.6540411,9.20182292 36.815825,9.30664062 L36.815825,9.30664062 L37.1131883,8.46923828 C36.9103888,8.34847005 36.6996141,8.28808594 36.4808641,8.28808594 C36.3259161,8.28808594 36.1874884,8.32682292 36.0655809,8.40429688 C35.9436733,8.48177083 35.8063849,8.64241536 35.6537156,8.88623047 L35.6537156,8.88623047 L35.6537156,8.37011719 L34.7616258,8.37011719 L34.7616258,12 L35.722075,12 Z M38.453032,12 L38.453032,10.8378906 L38.9007859,10.3696289 L39.8133836,12 L40.8490281,12 L39.5194383,9.69628906 L40.7601609,8.37011719 L39.5775438,8.37011719 L38.453032,9.6484375 L38.453032,6.98925781 L37.4925828,6.98925781 L37.4925828,12 L38.453032,12 Z" id="Bookmark" fill="#FFFFFF"></path>
        </g>
        <g id="Arrow" transform="translate(152.863500, 122.075000) scale(-1, 1) translate(-152.863500, -122.075000) translate(149.000000, 116.000000)">
            <polygon id="Path" fill="#FFFFFF" points="7.727 10.677 7.727 0 0 7.746 4.52 7.746 4.794 7.829"></polygon>
            <polygon id="Path" fill="#FFFFFF" points="1.671 11.126 4.074 12.15 7.195 4.757 4.738 3.722"></polygon>
            <polygon id="Path" fill="#000000" points="2.56 10.672 3.789 11.188 5.856 6.272 4.628 5.756"></polygon>
            <polygon id="Path" fill="#000000" points="7.06 1.605 7.06 9.063 5.081 7.153 4.796 7.06 1.617 7.06"></polygon>
        </g>
    </g>
</svg>