<?xml version="1.0" encoding="UTF-8"?>
<svg width="260px" height="240px" viewBox="0 0 260 240" version="1.1" xmlns="http://www.w3.org/2000/svg" xmlns:xlink="http://www.w3.org/1999/xlink">
    <title>discover-projects</title>
    <g id="discover-projects" stroke="none" stroke-width="1" fill="none" fill-rule="evenodd">
        <rect id="Background" fill="#F8F5FF" fill-rule="nonzero" x="0" y="0" width="260" height="240" rx="6"></rect>
        <g id="Browser">
            <line x1="0" y1="18.6028" x2="260" y2="18.6028" id="Path" stroke="#EAEBEB" stroke-width="0.794444"></line>
            <rect id="Rectangle" fill="#D9D9D9" fill-rule="nonzero" x="0" y="0" width="260" height="19"></rect>
            <circle id="Oval" fill="#FFFFFF" fill-rule="nonzero" cx="12.5334" cy="9" r="3"></circle>
            <circle id="Oval" fill="#FFFFFF" fill-rule="nonzero" cx="25.2446" cy="9" r="3"></circle>
            <circle id="Oval" fill="#FFFFFF" fill-rule="nonzero" cx="37.9559" cy="9" r="3"></circle>
        </g>
        <g id="Card---3rd" transform="translate(23.000000, 179.000000)">
            <rect id="Rectangle" fill="#FFFFFF" fill-rule="nonzero" x="25.03294" y="0" width="189" height="40" rx="3.17778"></rect>
            <rect id="Rectangle" fill="#CACFD7" fill-rule="nonzero" x="37.74374" y="11.122" width="68.3222" height="4.76667" rx="2.38333"></rect>
            <rect id="Rectangle" fill="#CACFD7" fill-rule="nonzero" x="37.74374" y="22.244" width="119.167" height="4.76667" rx="2.38333"></rect>
            <rect id="Rectangle" stroke="#EAEBEB" stroke-width="0.794444" x="25.43014" y="0.397" width="188.206" height="39.2056" rx="2.78056"></rect>
            <circle id="Oval" fill="#CACFD7" fill-rule="nonzero" cx="7.94444" cy="22.2" r="7.94444"></circle>
            <path d="M8.45898438,25.0976562 C9.00585938,25.0976562 9.46289062,24.9205729 9.83007812,24.5664062 C10.1972656,24.2122396 10.3808594,23.7838542 10.3808594,23.28125 C10.3808594,22.9348958 10.2825521,22.6393229 10.0859375,22.3945312 C9.88932292,22.1497396 9.62695312,21.9921875 9.29882812,21.921875 C9.84830729,21.6223958 10.1230469,21.2213542 10.1230469,20.71875 C10.1230469,20.3645833 9.98893229,20.046875 9.72070312,19.765625 C9.39518229,19.421875 8.96289062,19.25 8.42382812,19.25 C8.10872396,19.25 7.82421875,19.3092448 7.5703125,19.4277344 C7.31640625,19.546224 7.11848958,19.7089844 6.9765625,19.9160156 C6.83463542,20.1230469 6.72851562,20.3997396 6.65820312,20.7460938 L6.65820312,20.7460938 L7.66992188,20.9179688 C7.69856771,20.6679688 7.77929688,20.4778646 7.91210938,20.3476562 C8.04492188,20.2174479 8.20507812,20.1523438 8.39257812,20.1523438 C8.58268229,20.1523438 8.73502604,20.2096354 8.84960938,20.3242188 C8.96419271,20.4388021 9.02148438,20.5924479 9.02148438,20.7851562 C9.02148438,21.0117188 8.94335938,21.1933594 8.78710938,21.3300781 C8.63085938,21.4667969 8.40429688,21.53125 8.10742188,21.5234375 L8.10742188,21.5234375 L7.98632812,22.4179688 C8.18164062,22.3632812 8.34960938,22.3359375 8.49023438,22.3359375 C8.70377604,22.3359375 8.88476562,22.4166667 9.03320312,22.578125 C9.18164062,22.7395833 9.25585938,22.9583333 9.25585938,23.234375 C9.25585938,23.5260417 9.17838542,23.7578125 9.0234375,23.9296875 C8.86848958,24.1015625 8.67773438,24.1875 8.45117188,24.1875 C8.24023438,24.1875 8.06054688,24.1158854 7.91210938,23.9726562 C7.76367188,23.8294271 7.67252604,23.6223958 7.63867188,23.3515625 L7.63867188,23.3515625 L6.57617188,23.4804688 C6.63085938,23.9622396 6.82877604,24.3522135 7.16992188,24.6503906 C7.51106771,24.9485677 7.94075521,25.0976562 8.45898438,25.0976562 Z" id="3" fill="#FFFFFF" fill-rule="nonzero"></path>
        </g>
        <g id="Card---2nd" transform="translate(23.000000, 132.000000)">
            <rect id="Rectangle" fill="#FFFFFF" fill-rule="nonzero" x="25.03294" y="0" width="189" height="41" rx="3.17778"></rect>
            <rect id="Rectangle" fill="#CACFD7" fill-rule="nonzero" x="37.74374" y="12.711" width="68.3222" height="4.76667" rx="2.38333"></rect>
            <rect id="Rectangle" fill="#CACFD7" fill-rule="nonzero" x="37.74374" y="23.038" width="144.589" height="4.76667" rx="2.38333"></rect>
            <rect id="Rectangle" stroke="#EAEBEB" stroke-width="0.794444" x="25.43014" y="0.397" width="188.206" height="40.2056" rx="2.78056"></rect>
            <circle id="Oval" fill="#CACFD7" fill-rule="nonzero" cx="7.94444" cy="21.561" r="7.94444"></circle>
            <path d="M10.3222656,24 L10.3222656,22.9804688 L8.14257812,22.9804688 C8.19986979,22.8815104 8.27473958,22.7799479 8.3671875,22.6757812 C8.45963542,22.5716146 8.67903646,22.3606771 9.02539062,22.0429688 C9.37174479,21.7252604 9.61132812,21.4817708 9.74414062,21.3125 C9.94466146,21.0572917 10.0911458,20.813151 10.1835938,20.5800781 C10.2760417,20.3470052 10.3222656,20.1015625 10.3222656,19.84375 C10.3222656,19.390625 10.1608073,19.0117188 9.83789062,18.7070312 C9.51497396,18.4023438 9.07096354,18.25 8.50585938,18.25 C7.99023438,18.25 7.56054688,18.3815104 7.21679688,18.6445312 C6.87304688,18.9075521 6.66861979,19.3411458 6.60351562,19.9453125 L6.60351562,19.9453125 L7.69726562,20.0546875 C7.71809896,19.734375 7.79622396,19.5052083 7.93164062,19.3671875 C8.06705729,19.2291667 8.24934896,19.1601562 8.47851562,19.1601562 C8.71028646,19.1601562 8.89192708,19.2259115 9.0234375,19.3574219 C9.15494792,19.4889323 9.22070312,19.6770833 9.22070312,19.921875 C9.22070312,20.1432292 9.14518229,20.3671875 8.99414062,20.59375 C8.88216146,20.7578125 8.57877604,21.0703125 8.08398438,21.53125 C7.46940104,22.1015625 7.05794271,22.5592448 6.84960938,22.9042969 C6.64127604,23.249349 6.51627604,23.6145833 6.47460938,24 L6.47460938,24 L10.3222656,24 Z" id="2" fill="#FFFFFF" fill-rule="nonzero"></path>
        </g>
        <g id="Card---Featured" transform="translate(23.000000, 84.000000)">
            <rect id="Rectangle" fill="#FFFFFF" fill-rule="nonzero" x="25.03294" y="0" width="189" height="42" rx="3.17778"></rect>
            <rect id="Rectangle" fill="#7534FF" fill-rule="nonzero" x="36.15514" y="12.7116" width="68.3222" height="4.76667" rx="2.38333"></rect>
            <rect id="Rectangle" fill="#CACFD7" fill-rule="nonzero" x="36.15514" y="23.8341" width="144.589" height="4.76667" rx="2.38333"></rect>
            <rect id="Rectangle" fill="#7534FF" fill-rule="nonzero" x="113.21594" y="12.7116" width="36.5444" height="4.76667" rx="2.38333"></rect>
            <rect id="Rectangle" stroke="#1F40FF" stroke-width="0.794444" x="25.43014" y="0.3972" width="188.206" height="41.2056" rx="2.78056"></rect>
            <circle id="Oval" fill="#7534FF" fill-rule="nonzero" cx="7.94444" cy="21.0724" r="7.94444"></circle>
            <path d="M8.92382812,24 L8.92382812,18.25 L8.03320312,18.25 C7.90820312,18.5989583 7.67773438,18.9042969 7.34179688,19.1660156 C7.00585938,19.4277344 6.69466146,19.6054688 6.40820312,19.6992188 L6.40820312,19.6992188 L6.40820312,20.6953125 C6.95247396,20.515625 7.42513021,20.2382812 7.82617188,19.8632812 L7.82617188,19.8632812 L7.82617188,24 L8.92382812,24 Z" id="1" fill="#FFFFFF" fill-rule="nonzero"></path>
        </g>
        <g id="Nav" transform="translate(0.397200, 19.397200)">
            <rect id="Rectangle" fill="#FFFFFF" fill-rule="nonzero" x="0" y="0" width="259.206" height="31.2056"></rect>
            <rect id="Rectangle" fill="#C3C3C3" fill-rule="nonzero" x="123.0138" y="13.6028" width="30" height="4" rx="2"></rect>
            <rect id="Rectangle" fill="#C3C3C3" fill-rule="nonzero" x="164.7088" y="13.6028" width="30" height="4" rx="2"></rect>
            <rect id="Rectangle" fill="#C3C3C3" fill-rule="nonzero" x="205.9918" y="13.6028" width="30" height="4" rx="2"></rect>
            <rect id="Rectangle" stroke="#EAEBEB" stroke-width="0.794444" x="0" y="0" width="259.206" height="31.2056"></rect>
            <circle id="Oval" fill="#C3C3C3" cx="31.6028" cy="15.6028" r="9"></circle>
        </g>
        <path d="M90.7197266,72.1582031 C91.2535807,72.1582031 91.680013,72.1077474 91.9990234,72.0068359 C92.4254557,71.8701172 92.7639974,71.6796875 93.0146484,71.4355469 C93.3466797,71.1132812 93.6022135,70.6917318 93.78125,70.1708984 C93.9277344,69.7444661 94.0009766,69.2366536 94.0009766,68.6474609 C94.0009766,67.976888 93.9228516,67.4129232 93.7666016,66.9555664 C93.6103516,66.4982096 93.382487,66.1116536 93.0830078,65.7958984 C92.7835286,65.4801432 92.4238281,65.2604167 92.0039062,65.1367188 C91.6914062,65.0455729 91.2373047,65 90.6416016,65 L90.6416016,65 L88,65 L88,72.1582031 L90.7197266,72.1582031 Z M90.5244141,70.9521484 L89.4453125,70.9521484 L89.4453125,66.2109375 L90.0947266,66.2109375 C90.6839193,66.2109375 91.0794271,66.233724 91.28125,66.2792969 C91.5514323,66.3378906 91.7744141,66.4501953 91.9501953,66.6162109 C92.1259766,66.7822266 92.2626953,67.0133464 92.3603516,67.3095703 C92.4580078,67.6057943 92.5068359,68.030599 92.5068359,68.5839844 C92.5068359,69.1373698 92.4580078,69.5743815 92.3603516,69.8950195 C92.2626953,70.2156576 92.136556,70.4459635 91.9819336,70.5859375 C91.8273112,70.7259115 91.6328125,70.8251953 91.3984375,70.8837891 C91.219401,70.929362 90.9280599,70.9521484 90.5244141,70.9521484 L90.5244141,70.9521484 Z M96.5888672,66.2695312 L96.5888672,65 L95.2167969,65 L95.2167969,66.2695312 L96.5888672,66.2695312 Z M96.5888672,72.1582031 L96.5888672,66.9726562 L95.2167969,66.9726562 L95.2167969,72.1582031 L96.5888672,72.1582031 Z M99.9970703,72.2753906 C100.775065,72.2753906 101.36263,72.1044922 101.759766,71.7626953 C102.156901,71.4208984 102.355469,71.0123698 102.355469,70.5371094 C102.355469,70.1009115 102.21224,69.7607422 101.925781,69.5166016 C101.636068,69.2757161 101.125814,69.0722656 100.39502,68.90625 C99.6642253,68.7402344 99.2369792,68.6116536 99.1132812,68.5205078 C99.0221354,68.4521484 98.9765625,68.3691406 98.9765625,68.2714844 C98.9765625,68.1575521 99.0286458,68.0647786 99.1328125,67.9931641 C99.2890625,67.8922526 99.5478516,67.8417969 99.9091797,67.8417969 C100.195638,67.8417969 100.416178,67.8955078 100.570801,68.0029297 C100.725423,68.1103516 100.830404,68.264974 100.885742,68.4667969 L100.885742,68.4667969 L102.179688,68.2275391 C102.049479,67.7750651 101.811849,67.4332682 101.466797,67.2021484 C101.121745,66.9710286 100.594401,66.8554688 99.8847656,66.8554688 C99.1393229,66.8554688 98.5891927,67.0084635 98.234375,67.3144531 C97.8795573,67.6204427 97.7021484,67.9980469 97.7021484,68.4472656 C97.7021484,68.9453125 97.9072266,69.3343099 98.3173828,69.6142578 C98.6136068,69.8160807 99.3151042,70.0390625 100.421875,70.2832031 C100.659505,70.3385417 100.8125,70.398763 100.880859,70.4638672 C100.945964,70.5322266 100.978516,70.6184896 100.978516,70.7226562 C100.978516,70.875651 100.918294,70.9977214 100.797852,71.0888672 C100.618815,71.2190755 100.351888,71.2841797 99.9970703,71.2841797 C99.6748047,71.2841797 99.4241536,71.2150065 99.2451172,71.0766602 C99.0660807,70.9383138 98.9472656,70.7356771 98.8886719,70.46875 L98.8886719,70.46875 L97.5117188,70.6787109 C97.6386719,71.1702474 97.9080404,71.5592448 98.3198242,71.8457031 C98.7316081,72.1321615 99.2906901,72.2753906 99.9970703,72.2753906 Z M105.744141,72.2753906 C106.411458,72.2753906 106.943685,72.117513 107.34082,71.8017578 C107.737956,71.4860026 108.00651,71.0188802 108.146484,70.4003906 L108.146484,70.4003906 L106.798828,70.1708984 C106.730469,70.5322266 106.613281,70.7869466 106.447266,70.9350586 C106.28125,71.0831706 106.068034,71.1572266 105.807617,71.1572266 C105.45931,71.1572266 105.181803,71.0302734 104.975098,70.7763672 C104.768392,70.5224609 104.665039,70.0878906 104.665039,69.4726562 C104.665039,68.9192708 104.766764,68.5245768 104.970215,68.2885742 C105.173665,68.0525716 105.446289,67.9345703 105.788086,67.9345703 C106.045247,67.9345703 106.254395,68.0029297 106.415527,68.1396484 C106.57666,68.2763672 106.680013,68.4798177 106.725586,68.75 L106.725586,68.75 L108.078125,68.5058594 C107.915365,67.9492188 107.647624,67.5349935 107.274902,67.2631836 C106.902181,66.9913737 106.400065,66.8554688 105.768555,66.8554688 C104.99707,66.8554688 104.385091,67.0939128 103.932617,67.5708008 C103.480143,68.0476888 103.253906,68.7141927 103.253906,69.5703125 C103.253906,70.4166667 103.479329,71.0791016 103.930176,71.5576172 C104.381022,72.0361328 104.985677,72.2753906 105.744141,72.2753906 Z M111.481445,72.2753906 C112.249674,72.2753906 112.886882,72.0174154 113.393066,71.5014648 C113.899251,70.9855143 114.152344,70.3352865 114.152344,69.5507812 C114.152344,68.7727865 113.901693,68.129069 113.400391,67.6196289 C112.899089,67.1101888 112.256185,66.8554688 111.47168,66.8554688 C110.963867,66.8554688 110.504069,66.9677734 110.092285,67.1923828 C109.680501,67.4169922 109.362305,67.742513 109.137695,68.1689453 C108.913086,68.5953776 108.800781,69.0364583 108.800781,69.4921875 C108.800781,70.0878906 108.913086,70.5932617 109.137695,71.0083008 C109.362305,71.4233398 109.690267,71.7382812 110.121582,71.953125 C110.552897,72.1679688 111.006185,72.2753906 111.481445,72.2753906 Z M111.476562,71.1572266 C111.11849,71.1572266 110.817383,71.0205078 110.573242,70.7470703 C110.329102,70.4736328 110.207031,70.0797526 110.207031,69.5654297 C110.207031,69.0511068 110.329102,68.6572266 110.573242,68.3837891 C110.817383,68.1103516 111.11849,67.9736328 111.476562,67.9736328 C111.834635,67.9736328 112.134928,68.1103516 112.377441,68.3837891 C112.619954,68.6572266 112.741211,69.0478516 112.741211,69.5556641 C112.741211,70.0764974 112.619954,70.4736328 112.377441,70.7470703 C112.134928,71.0205078 111.834635,71.1572266 111.476562,71.1572266 Z M117.887695,72.1582031 L119.948242,66.9726562 L118.537109,66.9726562 L117.550781,69.6191406 C117.498698,69.765625 117.44987,69.9121094 117.404297,70.0585938 C117.384766,70.1302083 117.337565,70.2783203 117.262695,70.5029297 L117.262695,70.5029297 L116.979492,69.6191406 L116.00293,66.9726562 L114.5625,66.9726562 L116.652344,72.1582031 L117.887695,72.1582031 Z M122.902344,72.2753906 C123.472005,72.2753906 123.946452,72.1443685 124.325684,71.8823242 C124.704915,71.6202799 124.982422,71.2386068 125.158203,70.7373047 L125.158203,70.7373047 L123.791016,70.5078125 C123.716146,70.7682292 123.605469,70.9570312 123.458984,71.0742188 C123.3125,71.1914062 123.131836,71.25 122.916992,71.25 C122.601237,71.25 122.337565,71.1368815 122.125977,70.9106445 C121.914388,70.6844076 121.803711,70.3678385 121.793945,69.9609375 L121.793945,69.9609375 L125.231445,69.9609375 C125.250977,68.9095052 125.03776,68.129069 124.591797,67.6196289 C124.145833,67.1101888 123.537109,66.8554688 122.765625,66.8554688 C122.078776,66.8554688 121.510742,67.0987956 121.061523,67.5854492 C120.612305,68.0721029 120.387695,68.7451172 120.387695,69.6044922 C120.387695,70.3238932 120.558594,70.9195964 120.900391,71.3916016 C121.333333,71.9807943 122.000651,72.2753906 122.902344,72.2753906 Z M123.869141,69.1210938 L121.818359,69.1210938 C121.815104,68.7467448 121.911133,68.4505208 122.106445,68.2324219 C122.301758,68.0143229 122.549154,67.9052734 122.848633,67.9052734 C123.128581,67.9052734 123.366211,68.0086263 123.561523,68.215332 C123.756836,68.4220378 123.859375,68.7239583 123.869141,69.1210938 L123.869141,69.1210938 Z M127.663086,72.1582031 L127.663086,70.5566406 C127.663086,69.6744792 127.701335,69.0950521 127.777832,68.8183594 C127.854329,68.5416667 127.95931,68.3504232 128.092773,68.2446289 C128.226237,68.1388346 128.388997,68.0859375 128.581055,68.0859375 C128.779622,68.0859375 128.994466,68.1608073 129.225586,68.3105469 L129.225586,68.3105469 L129.650391,67.1142578 C129.360677,66.9417318 129.05957,66.8554688 128.74707,66.8554688 C128.525716,66.8554688 128.327962,66.9108073 128.153809,67.0214844 C127.979655,67.1321615 127.783529,67.3616536 127.56543,67.7099609 L127.56543,67.7099609 L127.56543,66.9726562 L126.291016,66.9726562 L126.291016,72.1582031 L127.663086,72.1582031 Z M134.474609,72.1582031 L134.474609,69.4580078 L135.416992,69.4580078 C136.071289,69.4580078 136.570964,69.4238281 136.916016,69.3554688 C137.169922,69.3001302 137.419759,69.1870117 137.665527,69.0161133 C137.911296,68.8452148 138.113932,68.610026 138.273438,68.3105469 C138.432943,68.0110677 138.512695,67.6416016 138.512695,67.2021484 C138.512695,66.632487 138.374349,66.167806 138.097656,65.8081055 C137.820964,65.4484049 137.477539,65.2148438 137.067383,65.1074219 C136.800456,65.0358073 136.227539,65 135.348633,65 L135.348633,65 L133.029297,65 L133.029297,72.1582031 L134.474609,72.1582031 Z M135.265625,68.2421875 L134.474609,68.2421875 L134.474609,66.2109375 L135.172852,66.2109375 C135.693685,66.2109375 136.040365,66.2272135 136.212891,66.2597656 C136.447266,66.3020833 136.640951,66.4078776 136.793945,66.5771484 C136.94694,66.7464193 137.023438,66.961263 137.023438,67.2216797 C137.023438,67.4332682 136.968913,67.6188151 136.859863,67.7783203 C136.750814,67.9378255 136.60026,68.055013 136.408203,68.1298828 C136.216146,68.2047526 135.835286,68.2421875 135.265625,68.2421875 L135.265625,68.2421875 Z M141.00293,72.1582031 L141.00293,70.5566406 C141.00293,69.6744792 141.041178,69.0950521 141.117676,68.8183594 C141.194173,68.5416667 141.299154,68.3504232 141.432617,68.2446289 C141.566081,68.1388346 141.728841,68.0859375 141.920898,68.0859375 C142.119466,68.0859375 142.33431,68.1608073 142.56543,68.3105469 L142.56543,68.3105469 L142.990234,67.1142578 C142.700521,66.9417318 142.399414,66.8554688 142.086914,66.8554688 C141.86556,66.8554688 141.667806,66.9108073 141.493652,67.0214844 C141.319499,67.1321615 141.123372,67.3616536 140.905273,67.7099609 L140.905273,67.7099609 L140.905273,66.9726562 L139.630859,66.9726562 L139.630859,72.1582031 L141.00293,72.1582031 Z M145.944336,72.2753906 C146.712565,72.2753906 147.349772,72.0174154 147.855957,71.5014648 C148.362142,70.9855143 148.615234,70.3352865 148.615234,69.5507812 C148.615234,68.7727865 148.364583,68.129069 147.863281,67.6196289 C147.361979,67.1101888 146.719076,66.8554688 145.93457,66.8554688 C145.426758,66.8554688 144.96696,66.9677734 144.555176,67.1923828 C144.143392,67.4169922 143.825195,67.742513 143.600586,68.1689453 C143.375977,68.5953776 143.263672,69.0364583 143.263672,69.4921875 C143.263672,70.0878906 143.375977,70.5932617 143.600586,71.0083008 C143.825195,71.4233398 144.153158,71.7382812 144.584473,71.953125 C145.015788,72.1679688 145.469076,72.2753906 145.944336,72.2753906 Z M145.939453,71.1572266 C145.58138,71.1572266 145.280273,71.0205078 145.036133,70.7470703 C144.791992,70.4736328 144.669922,70.0797526 144.669922,69.5654297 C144.669922,69.0511068 144.791992,68.6572266 145.036133,68.3837891 C145.280273,68.1103516 145.58138,67.9736328 145.939453,67.9736328 C146.297526,67.9736328 146.597819,68.1103516 146.840332,68.3837891 C147.082845,68.6572266 147.204102,69.0478516 147.204102,69.5556641 C147.204102,70.0764974 147.082845,70.4736328 146.840332,70.7470703 C146.597819,71.0205078 146.297526,71.1572266 145.939453,71.1572266 Z M151.032227,66.2695312 L151.032227,65 L149.660156,65 L149.660156,66.2695312 L151.032227,66.2695312 Z M149.464844,74.2626953 C149.845703,74.2626953 150.159017,74.1861979 150.404785,74.0332031 C150.650553,73.8802083 150.816569,73.667806 150.902832,73.3959961 C150.989095,73.1241862 151.032227,72.6578776 151.032227,71.9970703 L151.032227,71.9970703 L151.032227,66.9726562 L149.660156,66.9726562 L149.660156,71.9189453 C149.660156,72.3421224 149.645508,72.5960286 149.616211,72.6806641 C149.586914,72.7652995 149.527507,72.8377279 149.437988,72.8979492 C149.34847,72.9581706 149.233724,72.9882812 149.09375,72.9882812 C149.044922,72.9882812 148.992025,72.9842122 148.935059,72.9760742 C148.878092,72.9679362 148.817057,72.9573568 148.751953,72.9443359 L148.751953,72.9443359 L148.512695,74.1162109 C148.694987,74.1650391 148.865072,74.2016602 149.022949,74.2260742 C149.180827,74.2504883 149.328125,74.2626953 149.464844,74.2626953 Z M154.582031,72.2753906 C155.151693,72.2753906 155.626139,72.1443685 156.005371,71.8823242 C156.384603,71.6202799 156.662109,71.2386068 156.837891,70.7373047 L156.837891,70.7373047 L155.470703,70.5078125 C155.395833,70.7682292 155.285156,70.9570312 155.138672,71.0742188 C154.992188,71.1914062 154.811523,71.25 154.59668,71.25 C154.280924,71.25 154.017253,71.1368815 153.805664,70.9106445 C153.594076,70.6844076 153.483398,70.3678385 153.473633,69.9609375 L153.473633,69.9609375 L156.911133,69.9609375 C156.930664,68.9095052 156.717448,68.129069 156.271484,67.6196289 C155.825521,67.1101888 155.216797,66.8554688 154.445312,66.8554688 C153.758464,66.8554688 153.19043,67.0987956 152.741211,67.5854492 C152.291992,68.0721029 152.067383,68.7451172 152.067383,69.6044922 C152.067383,70.3238932 152.238281,70.9195964 152.580078,71.3916016 C153.013021,71.9807943 153.680339,72.2753906 154.582031,72.2753906 Z M155.548828,69.1210938 L153.498047,69.1210938 C153.494792,68.7467448 153.59082,68.4505208 153.786133,68.2324219 C153.981445,68.0143229 154.228841,67.9052734 154.52832,67.9052734 C154.808268,67.9052734 155.045898,68.0086263 155.241211,68.215332 C155.436523,68.4220378 155.539062,68.7239583 155.548828,69.1210938 L155.548828,69.1210938 Z M160.216797,72.2753906 C160.884115,72.2753906 161.416341,72.117513 161.813477,71.8017578 C162.210612,71.4860026 162.479167,71.0188802 162.619141,70.4003906 L162.619141,70.4003906 L161.271484,70.1708984 C161.203125,70.5322266 161.085938,70.7869466 160.919922,70.9350586 C160.753906,71.0831706 160.54069,71.1572266 160.280273,71.1572266 C159.931966,71.1572266 159.65446,71.0302734 159.447754,70.7763672 C159.241048,70.5224609 159.137695,70.0878906 159.137695,69.4726562 C159.137695,68.9192708 159.239421,68.5245768 159.442871,68.2885742 C159.646322,68.0525716 159.918945,67.9345703 160.260742,67.9345703 C160.517904,67.9345703 160.727051,68.0029297 160.888184,68.1396484 C161.049316,68.2763672 161.152669,68.4798177 161.198242,68.75 L161.198242,68.75 L162.550781,68.5058594 C162.388021,67.9492188 162.12028,67.5349935 161.747559,67.2631836 C161.374837,66.9913737 160.872721,66.8554688 160.241211,66.8554688 C159.469727,66.8554688 158.857747,67.0939128 158.405273,67.5708008 C157.952799,68.0476888 157.726562,68.7141927 157.726562,69.5703125 C157.726562,70.4166667 157.951986,71.0791016 158.402832,71.5576172 C158.853678,72.0361328 159.458333,72.2753906 160.216797,72.2753906 Z M164.99707,72.2753906 C165.400716,72.2753906 165.762044,72.2070312 166.081055,72.0703125 L166.081055,72.0703125 L165.963867,71.0058594 C165.722982,71.09375 165.539062,71.1376953 165.412109,71.1376953 C165.320964,71.1376953 165.243652,71.1149089 165.180176,71.0693359 C165.116699,71.023763 165.076009,70.9659831 165.058105,70.8959961 C165.040202,70.8260091 165.03125,70.5794271 165.03125,70.15625 L165.03125,68.0664062 L165.96875,68.0664062 L165.96875,66.9726562 L165.03125,66.9726562 L165.03125,65.1416016 L163.654297,65.9423828 L163.654297,66.9726562 L163.024414,66.9726562 L163.024414,68.0664062 L163.654297,68.0664062 L163.654984,70.5014038 C163.658188,70.8901978 163.672607,71.1543783 163.698242,71.2939453 C163.734049,71.5185547 163.79834,71.6967773 163.891113,71.8286133 C163.983887,71.9604492 164.129557,72.0678711 164.328125,72.1508789 C164.526693,72.2338867 164.749674,72.2753906 164.99707,72.2753906 Z M168.922852,72.2753906 C169.700846,72.2753906 170.288411,72.1044922 170.685547,71.7626953 C171.082682,71.4208984 171.28125,71.0123698 171.28125,70.5371094 C171.28125,70.1009115 171.138021,69.7607422 170.851562,69.5166016 C170.561849,69.2757161 170.051595,69.0722656 169.320801,68.90625 C168.590007,68.7402344 168.16276,68.6116536 168.039062,68.5205078 C167.947917,68.4521484 167.902344,68.3691406 167.902344,68.2714844 C167.902344,68.1575521 167.954427,68.0647786 168.058594,67.9931641 C168.214844,67.8922526 168.473633,67.8417969 168.834961,67.8417969 C169.121419,67.8417969 169.34196,67.8955078 169.496582,68.0029297 C169.651204,68.1103516 169.756185,68.264974 169.811523,68.4667969 L169.811523,68.4667969 L171.105469,68.2275391 C170.97526,67.7750651 170.73763,67.4332682 170.392578,67.2021484 C170.047526,66.9710286 169.520182,66.8554688 168.810547,66.8554688 C168.065104,66.8554688 167.514974,67.0084635 167.160156,67.3144531 C166.805339,67.6204427 166.62793,67.9980469 166.62793,68.4472656 C166.62793,68.9453125 166.833008,69.3343099 167.243164,69.6142578 C167.539388,69.8160807 168.240885,70.0390625 169.347656,70.2832031 C169.585286,70.3385417 169.738281,70.398763 169.806641,70.4638672 C169.871745,70.5322266 169.904297,70.6184896 169.904297,70.7226562 C169.904297,70.875651 169.844076,70.9977214 169.723633,71.0888672 C169.544596,71.2190755 169.277669,71.2841797 168.922852,71.2841797 C168.600586,71.2841797 168.349935,71.2150065 168.170898,71.0766602 C167.991862,70.9383138 167.873047,70.7356771 167.814453,70.46875 L167.814453,70.46875 L166.4375,70.6787109 C166.564453,71.1702474 166.833822,71.5592448 167.245605,71.8457031 C167.657389,72.1321615 168.216471,72.2753906 168.922852,72.2753906 Z" id="DiscoverProjects" fill="#000000" fill-rule="nonzero"></path>
    </g>
</svg>