<?xml version="1.0" encoding="UTF-8"?>
<svg width="260px" height="240px" viewBox="0 0 260 240" version="1.1" xmlns="http://www.w3.org/2000/svg" xmlns:xlink="http://www.w3.org/1999/xlink">
    <title>my-watchlist</title>
    <defs>
        <linearGradient x1="50%" y1="0.644667832%" x2="50%" y2="87.29561%" id="linearGradient-1">
            <stop stop-color="#FFFFFF" stop-opacity="0" offset="0%"></stop>
            <stop stop-color="#F9F9F9" stop-opacity="0.903627622" offset="100%"></stop>
        </linearGradient>
    </defs>
    <g id="my-watchlist" stroke="none" stroke-width="1" fill="none" fill-rule="evenodd">
        <rect id="Background" fill="#F8F5FF" fill-rule="nonzero" x="0" y="0" width="260" height="240" rx="6"></rect>
        <g id="Browser">
            <line x1="0" y1="18.6028" x2="260" y2="18.6028" id="Path" stroke="#EAEBEB" stroke-width="0.794444"></line>
            <rect id="Rectangle" fill="#7534FF" fill-rule="nonzero" x="0" y="0" width="260" height="19"></rect>
            <circle id="Oval" fill="#FFFFFF" fill-rule="nonzero" cx="12.5334" cy="9" r="3"></circle>
            <circle id="Oval" fill="#FFFFFF" fill-rule="nonzero" cx="25.2446" cy="9" r="3"></circle>
            <circle id="Oval" fill="#FFFFFF" fill-rule="nonzero" cx="37.9559" cy="9" r="3"></circle>
        </g>
        <g id="Card---Normal" transform="translate(36.000000, 115.000000)">
            <rect id="Background" stroke="#D8DBDF" stroke-width="0.794444" fill="#FFFFFF" x="1.42108547e-14" y="0" width="188.206" height="26" rx="2.78056"></rect>
            <g id="Button" transform="translate(158.047200, 8.314400)" fill-rule="nonzero">
                <rect id="Rectangle" fill="#CACFD7" x="0" y="0" width="22" height="10" rx="2.38333"></rect>
                <rect id="Skeleton-Copy" fill="#E6E6E6" x="5.1778" y="4.005835" width="12" height="2" rx="1"></rect>
            </g>
            <g id="Avatar" transform="translate(7.602800, 6.102800)" fill="#CACFD7">
                <circle id="Oval" cx="7" cy="7" r="7"></circle>
                <rect id="Rectangle" fill-rule="nonzero" x="17.1222" y="2.8341" width="38" height="3.24079455" rx="1.62039727"></rect>
                <rect id="Rectangle-Copy-3" fill-rule="nonzero" x="17.1222" y="7.59330545" width="19" height="3.24079455" rx="1.62039727"></rect>
                <rect id="Rectangle-Copy-4" fill-rule="nonzero" x="37.1222" y="7.59330545" width="11" height="3" rx="1.5"></rect>
            </g>
            <rect id="Skeleton" fill="#CACFD7" fill-rule="nonzero" x="71.725" y="10.9369" width="31" height="4.76667" rx="2.38333"></rect>
            <rect id="Skeleton" fill="#CACFD7" fill-rule="nonzero" x="117.725" y="10.9369" width="31" height="4.76667" rx="2.38333"></rect>
        </g>
        <g id="Card---Normal-Copy" transform="translate(36.000000, 146.000000)">
            <rect id="Background" stroke="#D8DBDF" stroke-width="0.794444" fill="#FFFFFF" x="-1.42108547e-14" y="0" width="188.206" height="26" rx="2.78056"></rect>
            <g id="Button" transform="translate(158.047200, 8.314400)" fill-rule="nonzero">
                <rect id="Rectangle" fill="#CACFD7" x="0" y="0" width="22" height="10" rx="2.38333"></rect>
                <rect id="Skeleton-Copy" fill="#E6E6E6" x="5.1778" y="4.005835" width="12" height="2" rx="1"></rect>
            </g>
            <g id="Avatar" transform="translate(7.602800, 6.102800)" fill="#CACFD7">
                <circle id="Oval" cx="7" cy="7" r="7"></circle>
                <rect id="Rectangle" fill-rule="nonzero" x="17.1222" y="2.8341" width="38" height="3.24079455" rx="1.62039727"></rect>
                <rect id="Rectangle-Copy-3" fill-rule="nonzero" x="17.1222" y="7.59330545" width="19" height="3.24079455" rx="1.62039727"></rect>
                <rect id="Rectangle-Copy-4" fill-rule="nonzero" x="37.1222" y="7.59330545" width="11" height="3" rx="1.5"></rect>
            </g>
            <rect id="Skeleton" fill="#CACFD7" fill-rule="nonzero" x="71.725" y="10.9369" width="37" height="4.76667" rx="2.38333"></rect>
            <rect id="Skeleton" fill="#CACFD7" fill-rule="nonzero" x="117.725" y="10.9369" width="22" height="4.76667" rx="2.38333"></rect>
        </g>
        <g id="Card---Normal-Copy-2" transform="translate(36.000000, 177.000000)">
            <rect id="Background" stroke="#D8DBDF" stroke-width="0.794444" fill="#FFFFFF" x="-1.42108547e-14" y="0" width="188.206" height="26" rx="2.78056"></rect>
            <g id="Button" transform="translate(158.047200, 8.314400)" fill-rule="nonzero">
                <rect id="Rectangle" fill="#CACFD7" x="0" y="0" width="22" height="10" rx="2.38333"></rect>
                <rect id="Skeleton-Copy" fill="#E6E6E6" x="5.1778" y="4.005835" width="12" height="2" rx="1"></rect>
            </g>
            <g id="Avatar" transform="translate(7.602800, 6.102800)" fill="#CACFD7">
                <circle id="Oval" cx="7" cy="7" r="7"></circle>
                <rect id="Rectangle" fill-rule="nonzero" x="17.1222" y="2.8341" width="38" height="3.24079455" rx="1.62039727"></rect>
                <rect id="Rectangle-Copy-3" fill-rule="nonzero" x="17.1222" y="7.59330545" width="19" height="3.24079455" rx="1.62039727"></rect>
                <rect id="Rectangle-Copy-4" fill-rule="nonzero" x="37.1222" y="7.59330545" width="11" height="3" rx="1.5"></rect>
            </g>
            <rect id="Skeleton" fill="#CACFD7" fill-rule="nonzero" x="71.725" y="10.9369" width="28" height="4.76667" rx="2.38333"></rect>
            <rect id="Skeleton" fill="#CACFD7" fill-rule="nonzero" x="117.725" y="10.9369" width="18" height="4.76667" rx="2.38333"></rect>
        </g>
        <g id="Card---Normal-Copy-3" transform="translate(36.000000, 208.000000)">
            <rect id="Background" stroke="#D8DBDF" stroke-width="0.794444" fill="#FFFFFF" x="-1.42108547e-14" y="0" width="188.206" height="26" rx="2.78056"></rect>
            <g id="Button" transform="translate(158.047200, 8.314400)" fill-rule="nonzero">
                <rect id="Rectangle" fill="#CACFD7" x="0" y="0" width="22" height="10" rx="2.38333"></rect>
                <rect id="Skeleton-Copy" fill="#E6E6E6" x="5.1778" y="4.005835" width="12" height="2" rx="1"></rect>
            </g>
            <g id="Avatar" transform="translate(7.602800, 6.102800)" fill="#CACFD7">
                <circle id="Oval" cx="7" cy="7" r="7"></circle>
                <rect id="Rectangle" fill-rule="nonzero" x="17.1222" y="2.8341" width="38" height="3.24079455" rx="1.62039727"></rect>
                <rect id="Rectangle-Copy-3" fill-rule="nonzero" x="17.1222" y="7.59330545" width="19" height="3.24079455" rx="1.62039727"></rect>
                <rect id="Rectangle-Copy-4" fill-rule="nonzero" x="37.1222" y="7.59330545" width="11" height="3" rx="1.5"></rect>
            </g>
            <rect id="Skeleton" fill="#CACFD7" fill-rule="nonzero" x="71.725" y="10.9369" width="18" height="4.76667" rx="2.38333"></rect>
            <rect id="Skeleton" fill="#CACFD7" fill-rule="nonzero" x="117.725" y="10.9369" width="31" height="4.76667" rx="2.38333"></rect>
        </g>
        <g id="Card---Featured" transform="translate(36.000000, 84.000000)">
            <rect id="Background" stroke="#7534FF" stroke-width="0.794444" fill="#FFFFFF" x="-1.42108547e-14" y="0" width="188.206" height="26" rx="2.78056"></rect>
            <g id="Button" transform="translate(158.047200, 8.314400)" fill-rule="nonzero">
                <rect id="Rectangle" fill="#7534FF" x="0" y="0" width="22" height="10" rx="2.38333"></rect>
                <path d="M7.45208437,6.7884 L8.73382266,3.20929844 L7.96722109,3.20929844 L7.09075625,5.85822422 L6.18499453,3.20929844 L5.40130312,3.20929844 L6.6806,6.7884 L7.45208437,6.7884 Z M9.69329531,3.84406406 L9.69329531,3.20929844 L9.00726016,3.20929844 L9.00726016,3.84406406 L9.69329531,3.84406406 Z M9.69329531,6.7884 L9.69329531,4.19562656 L9.00726016,4.19562656 L9.00726016,6.7884 L9.69329531,6.7884 Z M11.4535492,6.84699375 C11.7383799,6.84699375 11.9756033,6.78148268 12.1652191,6.65046055 C12.354835,6.51943841 12.4935883,6.32860182 12.5814789,6.07795078 L12.5814789,6.07795078 L11.8978852,5.96320469 C11.8604503,6.09341302 11.8051117,6.18781406 11.7318695,6.24640781 C11.6586273,6.30500156 11.5682953,6.33429844 11.4608734,6.33429844 C11.3029958,6.33429844 11.1711599,6.27773919 11.0653656,6.1646207 C10.9595714,6.05150221 10.9042328,5.89321771 10.89935,5.68976719 L10.89935,5.68976719 L12.6181,5.68976719 C12.6278656,5.16405104 12.5212576,4.77383294 12.2982758,4.51911289 C12.075294,4.26439284 11.770932,4.13703281 11.3851898,4.13703281 C11.0417654,4.13703281 10.7577484,4.25869622 10.5331391,4.50202305 C10.3085297,4.74534987 10.196225,5.08185703 10.196225,5.51154453 C10.196225,5.87124505 10.2816742,6.16909661 10.4525727,6.40509922 C10.669044,6.69969557 11.0027029,6.84699375 11.4535492,6.84699375 Z M11.9369477,5.26984531 L10.911557,5.26984531 C10.9099294,5.08267083 10.9579437,4.93455885 11.0556,4.82550938 C11.1532562,4.7164599 11.2769542,4.66193516 11.4266937,4.66193516 C11.5666677,4.66193516 11.6854828,4.71361159 11.7831391,4.81696445 C11.8807953,4.92031732 11.9320648,5.0712776 11.9369477,5.26984531 L11.9369477,5.26984531 Z M14.3270844,6.7884 L14.7665375,5.12091953 L15.2133148,6.7884 L15.8724945,6.7884 L16.7050141,4.19562656 L16.0287445,4.19562656 L15.5331391,5.89484531 L15.1010102,4.19562656 L14.4393891,4.19562656 L13.9926117,5.89484531 L13.5067719,4.19562656 L12.840268,4.19562656 L13.6605805,6.7884 L14.3270844,6.7884 Z" id="View" fill="#FFFFFF"></path>
            </g>
            <g id="Avatar" transform="translate(7.602800, 6.102800)" fill="#CACFD7">
                <circle id="Oval" cx="7" cy="7" r="7"></circle>
                <rect id="Rectangle" fill-rule="nonzero" x="17.1222" y="2.8341" width="38" height="3.24079455" rx="1.62039727"></rect>
                <rect id="Rectangle-Copy-3" fill-rule="nonzero" x="17.1222" y="7.59330545" width="19" height="3.24079455" rx="1.62039727"></rect>
                <rect id="Rectangle-Copy-4" fill-rule="nonzero" x="37.1222" y="7.59330545" width="11" height="3" rx="1.5"></rect>
            </g>
            <rect id="Skeleton" fill="#CACFD7" fill-rule="nonzero" x="71.725" y="10.9369" width="40" height="4.76667" rx="2.38333"></rect>
            <rect id="Skeleton" fill="#CACFD7" fill-rule="nonzero" x="117.725" y="10.9369" width="31" height="4.76667" rx="2.38333"></rect>
        </g>
        <path d="M101.342773,72.1582031 L101.342773,66.5234375 L102.758789,72.1582031 L104.150391,72.1582031 L105.571289,66.5234375 L105.571289,72.1582031 L106.914062,72.1582031 L106.914062,65 L104.746094,65 L103.461914,69.8828125 L102.163086,65 L100,65 L100,72.1582031 L101.342773,72.1582031 Z M108.920898,74.2626953 C109.181315,74.2626953 109.414876,74.235026 109.621582,74.1796875 C109.828288,74.124349 110.002441,74.0470378 110.144043,73.9477539 C110.285645,73.8484701 110.41097,73.7190755 110.52002,73.5595703 C110.629069,73.4000651 110.743815,73.1689453 110.864258,72.8662109 L110.864258,72.8662109 L111.191406,71.9628906 L113.022461,66.9726562 L111.601562,66.9726562 L110.390625,70.6542969 L109.150391,66.9726562 L107.69043,66.9726562 L109.663086,72.1728516 C109.581706,72.4625651 109.464518,72.7010091 109.311523,72.8881836 C109.158529,73.0753581 108.922526,73.1689453 108.603516,73.1689453 C108.43099,73.1689453 108.237305,73.1477865 108.022461,73.1054688 L108.022461,73.1054688 L108.144531,74.1796875 C108.398438,74.235026 108.657227,74.2626953 108.920898,74.2626953 Z M119.272461,72.1582031 L120.693359,66.8066406 L122.119141,72.1582031 L123.652344,72.1582031 L125.390625,65 L123.935547,65 L122.836914,70 L121.582031,65 L119.863281,65 L118.554688,69.9169922 L117.475586,65 L115.996094,65 L117.705078,72.1582031 L119.272461,72.1582031 Z M127.109375,72.2753906 C127.412109,72.2753906 127.69694,72.2184245 127.963867,72.1044922 C128.230794,71.9905599 128.481445,71.8196615 128.71582,71.5917969 C128.725586,71.6178385 128.741862,71.6715495 128.764648,71.7529297 C128.816732,71.9319661 128.860677,72.0670573 128.896484,72.1582031 L128.896484,72.1582031 L130.253906,72.1582031 C130.133464,71.9108073 130.05127,71.6788737 130.007324,71.4624023 C129.963379,71.245931 129.941406,70.9098307 129.941406,70.4541016 L129.941406,70.4541016 L129.956055,68.8525391 C129.956055,68.2568359 129.89502,67.8474935 129.772949,67.6245117 C129.650879,67.4015299 129.440104,67.2176107 129.140625,67.0727539 C128.841146,66.9278971 128.385417,66.8554688 127.773438,66.8554688 C127.099609,66.8554688 126.591797,66.9759115 126.25,67.2167969 C125.908203,67.4576823 125.667318,67.828776 125.527344,68.3300781 L125.527344,68.3300781 L126.772461,68.5546875 C126.857096,68.3138021 126.967773,68.1453451 127.104492,68.0493164 C127.241211,67.9532878 127.431641,67.9052734 127.675781,67.9052734 C128.037109,67.9052734 128.282878,67.9614258 128.413086,68.0737305 C128.543294,68.1860352 128.608398,68.3740234 128.608398,68.6376953 L128.608398,68.6376953 L128.608398,68.7744141 C128.361003,68.8785807 127.916667,68.9908854 127.275391,69.1113281 C126.80013,69.202474 126.436361,69.309082 126.184082,69.4311523 C125.931803,69.5532227 125.735677,69.7290039 125.595703,69.9584961 C125.455729,70.1879883 125.385742,70.4492188 125.385742,70.7421875 C125.385742,71.1848958 125.539551,71.5511068 125.847168,71.8408203 C126.154785,72.1305339 126.575521,72.2753906 127.109375,72.2753906 Z M127.519531,71.3085938 C127.298177,71.3085938 127.115885,71.2386068 126.972656,71.0986328 C126.829427,70.9586589 126.757812,70.7926432 126.757812,70.6005859 C126.757812,70.4052734 126.847331,70.2441406 127.026367,70.1171875 C127.143555,70.0390625 127.392578,69.9593099 127.773438,69.8779297 C128.154297,69.7965495 128.432617,69.7265625 128.608398,69.6679688 L128.608398,69.6679688 L128.608398,69.9414062 C128.608398,70.2701823 128.590495,70.4931641 128.554688,70.6103516 C128.502604,70.789388 128.393555,70.9407552 128.227539,71.0644531 C128.00293,71.2272135 127.766927,71.3085938 127.519531,71.3085938 Z M132.714844,72.2753906 C133.11849,72.2753906 133.479818,72.2070312 133.798828,72.0703125 L133.798828,72.0703125 L133.681641,71.0058594 C133.440755,71.09375 133.256836,71.1376953 133.129883,71.1376953 C133.038737,71.1376953 132.961426,71.1149089 132.897949,71.0693359 C132.834473,71.023763 132.793783,70.9659831 132.775879,70.8959961 C132.757975,70.8260091 132.749023,70.5794271 132.749023,70.15625 L132.749023,68.0664062 L133.686523,68.0664062 L133.686523,66.9726562 L132.749023,66.9726562 L132.749023,65.1416016 L131.37207,65.9423828 L131.37207,66.9726562 L130.742188,66.9726562 L130.742188,68.0664062 L131.37207,68.0664062 L131.37207,70.3271484 C131.37207,70.8121745 131.386719,71.1344401 131.416016,71.2939453 C131.451823,71.5185547 131.516113,71.6967773 131.608887,71.8286133 C131.70166,71.9604492 131.847331,72.0678711 132.045898,72.1508789 C132.244466,72.2338867 132.467448,72.2753906 132.714844,72.2753906 Z M136.826172,72.2753906 C137.49349,72.2753906 138.025716,72.117513 138.422852,71.8017578 C138.819987,71.4860026 139.088542,71.0188802 139.228516,70.4003906 L139.228516,70.4003906 L137.880859,70.1708984 C137.8125,70.5322266 137.695312,70.7869466 137.529297,70.9350586 C137.363281,71.0831706 137.150065,71.1572266 136.889648,71.1572266 C136.541341,71.1572266 136.263835,71.0302734 136.057129,70.7763672 C135.850423,70.5224609 135.74707,70.0878906 135.74707,69.4726562 C135.74707,68.9192708 135.848796,68.5245768 136.052246,68.2885742 C136.255697,68.0525716 136.52832,67.9345703 136.870117,67.9345703 C137.127279,67.9345703 137.336426,68.0029297 137.497559,68.1396484 C137.658691,68.2763672 137.762044,68.4798177 137.807617,68.75 L137.807617,68.75 L139.160156,68.5058594 C138.997396,67.9492188 138.729655,67.5349935 138.356934,67.2631836 C137.984212,66.9913737 137.482096,66.8554688 136.850586,66.8554688 C136.079102,66.8554688 135.467122,67.0939128 135.014648,67.5708008 C134.562174,68.0476888 134.335938,68.7141927 134.335938,69.5703125 C134.335938,70.4166667 134.561361,71.0791016 135.012207,71.5576172 C135.463053,72.0361328 136.067708,72.2753906 136.826172,72.2753906 Z M141.567383,72.1582031 L141.567383,69.5605469 C141.567383,69.124349 141.608887,68.7947591 141.691895,68.5717773 C141.774902,68.3487956 141.905924,68.1819661 142.084961,68.0712891 C142.263997,67.960612 142.467448,67.9052734 142.695312,67.9052734 C142.89388,67.9052734 143.059082,67.9484049 143.190918,68.034668 C143.322754,68.120931 143.414714,68.2373047 143.466797,68.3837891 C143.51888,68.5302734 143.544922,68.8753255 143.544922,69.4189453 L143.544922,69.4189453 L143.544922,72.1582031 L144.916992,72.1582031 L144.916992,69.1162109 C144.916992,68.6507161 144.893392,68.3072917 144.846191,68.0859375 C144.798991,67.8645833 144.7111,67.6627604 144.58252,67.4804688 C144.453939,67.2981771 144.262695,67.1484375 144.008789,67.03125 C143.754883,66.9140625 143.470052,66.8554688 143.154297,66.8554688 C142.539062,66.8554688 142.010091,67.1142578 141.567383,67.6318359 L141.567383,67.6318359 L141.567383,65 L140.195312,65 L140.195312,72.1582031 L141.567383,72.1582031 Z M147.680664,72.1582031 L147.680664,65 L146.308594,65 L146.308594,72.1582031 L147.680664,72.1582031 Z M150.458984,66.2695312 L150.458984,65 L149.086914,65 L149.086914,66.2695312 L150.458984,66.2695312 Z M150.458984,72.1582031 L150.458984,66.9726562 L149.086914,66.9726562 L149.086914,72.1582031 L150.458984,72.1582031 Z M153.867188,72.2753906 C154.645182,72.2753906 155.232747,72.1044922 155.629883,71.7626953 C156.027018,71.4208984 156.225586,71.0123698 156.225586,70.5371094 C156.225586,70.1009115 156.082357,69.7607422 155.795898,69.5166016 C155.506185,69.2757161 154.995931,69.0722656 154.265137,68.90625 C153.534342,68.7402344 153.107096,68.6116536 152.983398,68.5205078 C152.892253,68.4521484 152.84668,68.3691406 152.84668,68.2714844 C152.84668,68.1575521 152.898763,68.0647786 153.00293,67.9931641 C153.15918,67.8922526 153.417969,67.8417969 153.779297,67.8417969 C154.065755,67.8417969 154.286296,67.8955078 154.440918,68.0029297 C154.59554,68.1103516 154.700521,68.264974 154.755859,68.4667969 L154.755859,68.4667969 L156.049805,68.2275391 C155.919596,67.7750651 155.681966,67.4332682 155.336914,67.2021484 C154.991862,66.9710286 154.464518,66.8554688 153.754883,66.8554688 C153.00944,66.8554688 152.45931,67.0084635 152.104492,67.3144531 C151.749674,67.6204427 151.572266,67.9980469 151.572266,68.4472656 C151.572266,68.9453125 151.777344,69.3343099 152.1875,69.6142578 C152.483724,69.8160807 153.185221,70.0390625 154.291992,70.2832031 C154.529622,70.3385417 154.682617,70.398763 154.750977,70.4638672 C154.816081,70.5322266 154.848633,70.6184896 154.848633,70.7226562 C154.848633,70.875651 154.788411,70.9977214 154.667969,71.0888672 C154.488932,71.2190755 154.222005,71.2841797 153.867188,71.2841797 C153.544922,71.2841797 153.294271,71.2150065 153.115234,71.0766602 C152.936198,70.9383138 152.817383,70.7356771 152.758789,70.46875 L152.758789,70.46875 L151.381836,70.6787109 C151.508789,71.1702474 151.778158,71.5592448 152.189941,71.8457031 C152.601725,72.1321615 153.160807,72.2753906 153.867188,72.2753906 Z M158.833008,72.2753906 C159.236654,72.2753906 159.597982,72.2070312 159.916992,72.0703125 L159.916992,72.0703125 L159.799805,71.0058594 C159.558919,71.09375 159.375,71.1376953 159.248047,71.1376953 C159.156901,71.1376953 159.07959,71.1149089 159.016113,71.0693359 C158.952637,71.023763 158.911947,70.9659831 158.894043,70.8959961 C158.876139,70.8260091 158.867188,70.5794271 158.867188,70.15625 L158.867188,70.15625 L158.867188,68.0664062 L159.804688,68.0664062 L159.804688,66.9726562 L158.867188,66.9726562 L158.867188,65.1416016 L157.490234,65.9423828 L157.490234,66.9726562 L156.860352,66.9726562 L156.860352,68.0664062 L157.490234,68.0664062 L157.490234,70.3271484 C157.490234,70.8121745 157.504883,71.1344401 157.53418,71.2939453 C157.569987,71.5185547 157.634277,71.6967773 157.727051,71.8286133 C157.819824,71.9604492 157.965495,72.0678711 158.164062,72.1508789 C158.36263,72.2338867 158.585612,72.2753906 158.833008,72.2753906 Z" id="MyWatchlist" fill="#000000" fill-rule="nonzero"></path>
        <rect id="Rectangle" fill="url(#linearGradient-1)" x="0" y="191" width="260" height="49"></rect>
        <g id="Nav" transform="translate(0.397200, 19.397200)">
            <rect id="Rectangle" fill="#FFFFFF" fill-rule="nonzero" x="0" y="0" width="259.206" height="31.2056"></rect>
            <rect id="Rectangle" fill="#C3C3C3" fill-rule="nonzero" x="123.0138" y="13.6028" width="30" height="4" rx="2"></rect>
            <rect id="Rectangle" fill="#C3C3C3" fill-rule="nonzero" x="164.7088" y="13.6028" width="30" height="4" rx="2"></rect>
            <rect id="Rectangle" fill="#C3C3C3" fill-rule="nonzero" x="205.9918" y="13.6028" width="30" height="4" rx="2"></rect>
            <rect id="Rectangle" stroke="#EAEBEB" stroke-width="0.794444" x="0" y="0" width="259.206" height="31.2056"></rect>
            <circle id="Oval" fill="#C3C3C3" cx="31.6028" cy="15.6028" r="9"></circle>
        </g>
    </g>
</svg>